<svg width="1114" height="184" viewBox="0 0 1114 184" fill="none" xmlns="http://www.w3.org/2000/svg">
<g clip-path="url(#clip0_273_1965)">
<path d="M65.8348 146.658H64.7336C57.8512 124.159 50.7329 101.738 43.4966 79.3171C42.5921 76.49 41.6875 73.6628 40.783 70.8749C38.9739 65.2207 38.1087 57.9565 35.4737 52.6948C33.8613 49.4358 33.1927 50.1426 29.1419 50.1426C26.1137 50.1426 23.0855 50.1426 20.0965 50.1426C14.0007 50.1426 5.82054 48.7682 -0.0393066 50.4567C1.76977 62.8254 7.86559 75.8617 11.6804 87.8378C15.7705 100.678 19.8606 113.557 23.9507 126.397C25.1305 130.166 26.3497 133.936 27.6868 137.627C31.7769 148.975 37.1255 159.812 41.0189 171.239C42.3168 175.008 42.3954 180.859 46.0922 181.919C48.1766 182.508 51.3622 181.919 53.5252 181.919H86.5606C90.6113 169.982 94.6228 158.045 98.6735 146.108C105.635 125.494 113.185 105.233 120.147 84.618C122.074 78.9245 123.922 73.2309 125.652 67.4981C127.226 62.3542 130.175 56.0324 130.293 50.6923C120.068 51.0064 108.899 48.7682 98.7522 50.1426C94.3475 50.7315 93.7182 55.1293 92.1844 59.213C90.218 64.3568 88.6056 69.6184 87.0718 74.9586C84.0436 85.5604 81.5659 96.3585 77.7511 106.725C74.5262 115.442 72.4812 124.983 69.7282 133.975C69.4923 134.8 66.464 146.697 65.8348 146.697V146.658Z" fill="#F5F1E9"/>
<path d="M145.316 181.919C145.316 181.055 160.222 181.212 161.283 181.212C164.98 181.212 168.716 181.212 172.413 181.212C175.323 181.212 176.346 181.88 177.211 179.367C178.194 176.539 177.211 171.513 177.211 168.529C177.211 162.796 177.211 157.103 177.211 151.37C177.211 123.413 177.211 95.4554 177.211 67.4981C177.211 66.595 177.211 50.1033 177.211 50.1033H164.902C160.143 50.1033 151.805 48.4149 147.361 50.1033C145.631 50.7708 146.142 49.7106 145.395 51.7917C144.569 54.0691 145.67 58.7025 145.749 61.137C145.946 67.341 146.063 73.5843 146.142 79.8276C146.299 92 146.299 104.172 146.26 116.345C146.26 119.133 146.26 121.921 146.26 124.708C146.26 143.752 145.277 162.796 145.277 181.88L145.316 181.919Z" fill="#F5F1E9"/>
<path d="M196.364 76.0188V76.9612C196.364 75.1942 225.624 76.2151 228.337 76.3329C233.804 76.5685 239.31 76.8041 244.777 76.8041C249.85 76.8041 255.474 75.1157 260.429 76.2544C257.204 83.5971 250.322 90.6257 245.602 97.1438C241.512 102.798 237.462 108.413 233.371 114.067C229.045 120.036 224.719 126.004 220.433 131.973C216.342 137.627 212.213 143.321 208.123 148.975C205.999 151.92 203.836 154.865 201.713 157.81C199.903 160.323 196.875 162.443 195.853 165.506C194.555 169.511 195.381 175.244 195.223 179.445C195.066 184.432 207.926 182.547 211.269 182.469C221.141 182.233 231.012 182.076 240.883 181.919C251.03 181.801 261.176 181.723 271.323 181.683C276.396 181.683 281.469 181.683 286.543 181.683C288.902 181.683 299.324 183.175 300.819 181.566C302.628 179.641 301.055 169.943 301.055 167.391C301.055 164.838 302.195 158.948 300.819 156.867C299.167 154.354 295.352 155.414 292.599 155.454C284.694 155.571 276.789 155.689 268.845 155.807C263.182 155.886 257.558 155.964 251.895 156.043C247.294 156.121 241.591 157.064 237.147 156.043C239.585 151.37 243.597 146.972 246.743 142.692C246.743 140.965 251.187 136.606 252.288 135.114C254.373 132.287 256.3 129.106 258.62 126.475C261.609 123.099 264.755 119.761 266.8 115.756C268.845 111.751 271.401 109.002 274.076 105.35L282.964 93.178C288.548 85.5211 294.29 78.0213 299.796 70.286C300.543 69.265 301.291 68.1656 301.487 66.9484C301.645 65.8882 301.409 64.828 301.251 63.7678C300.622 60.3124 300.819 56.8963 300.543 53.4409C300.229 49.3965 299.678 50.1426 295.509 50.1426C288.745 50.1426 282.02 50.1426 275.256 50.1426H206.589C204.426 50.1426 200.611 49.3965 198.566 50.1426C195.066 51.4383 196.482 57.1711 196.443 60.7836L196.246 75.9795L196.364 76.0188Z" fill="#F5F1E9"/>
<path d="M359.85 80.6914C360.125 80.5343 360.361 80.3773 360.636 80.2595C370.901 74.6052 384.154 75.9795 394.261 81.9087C395.717 82.7725 397.172 83.7542 398.116 85.1677C398.823 86.2672 399.217 87.5237 399.571 88.7802C400.436 91.7644 401.734 94.8664 402.127 97.8899C402.166 98.2825 429.735 97.8899 431.937 97.9684C432.488 97.9684 433.117 97.9684 433.55 97.615C433.865 97.3402 433.982 96.9082 434.1 96.5156C434.926 93.0209 433.117 89.6048 432.095 86.4242C431.072 83.2437 429.932 79.9454 428.319 76.8826C425.094 70.7571 420.926 65.574 415.774 61.3333C410.622 57.0926 404.644 53.8728 397.84 51.6739C391.037 49.475 383.643 48.3756 375.659 48.3756C352.928 48.3756 327.837 60.8621 319.185 83.0474C317.651 86.974 316.825 91.0969 316.078 95.2591C314.78 102.366 313.639 109.473 312.696 116.62C312.42 118.544 312.184 120.429 312.263 122.353C312.342 124.905 312.971 127.379 313.6 129.852C315.094 135.86 316.628 141.868 318.123 147.875C319.499 153.373 324.376 158.438 327.994 162.796C332.359 168.097 337.669 172.534 343.686 175.872C353.124 181.134 363.822 183.764 375.738 183.764C384.823 183.764 392.846 182.39 399.885 179.641C411.054 175.283 421.752 168.019 427.454 157.26C430.325 151.841 432.213 145.951 433.982 140.101C434.415 138.726 434.769 137.038 433.825 135.978C433.039 135.075 431.662 134.996 430.443 134.996C425.606 134.996 420.768 135.114 415.931 135.35C412.195 135.546 407.476 134.564 403.936 135.703C401.458 136.488 402.048 138.373 401.065 141.004C399.964 143.91 398.273 146.58 396.031 148.739C391.705 152.941 385.688 155.14 379.671 155.454C373.654 155.768 367.636 154.354 362.052 152.038C360.361 151.331 358.67 150.545 357.254 149.367C355.72 148.072 354.58 146.423 353.557 144.695C347.029 133.779 344.551 120.743 345.574 108.06C345.77 105.507 346.124 102.955 346.989 100.521C347.973 97.6935 349.624 95.1805 350.922 92.5104C352.181 89.9582 353.164 87.2881 354.894 85.0499C356.231 83.3222 358.001 81.9087 359.889 80.7699L359.85 80.6914Z" fill="#F5F1E9"/>
<path d="M488.176 50.4174C487.822 50.6137 487.508 51.0064 487.036 51.7524C484.244 55.9539 483.221 63.1003 481.609 67.8907C477.912 78.8066 474.254 89.6833 470.558 100.599C468.984 105.233 467.451 109.827 465.524 114.303C462.653 121.017 460.372 128.164 458.917 135.31C458.405 137.823 457.855 140.376 457.029 142.81C455.338 147.561 453.686 152.234 451.68 156.789C450.264 160.048 449.281 163.464 448.259 166.88C446.804 171.906 445.624 177.168 443.5 181.958C443.854 181.134 457.461 181.958 458.995 181.958C464.934 181.919 470.872 181.84 476.85 181.801C477.125 181.801 477.401 181.801 477.637 181.644C477.951 181.487 478.108 181.134 478.226 180.819C480.232 175.911 481.766 170.807 483.182 165.702C484.204 162.168 484.283 155.218 488.255 153.805C490.103 153.137 492.109 153.333 494.036 153.53C502.688 154.354 511.38 154.629 520.032 154.394C522.785 154.315 528.999 152.038 531.358 153.962C532.853 155.179 532.853 160.244 533.285 162.168C534.033 165.584 534.977 169 535.881 172.377C536.196 173.555 536.51 174.733 537.179 175.793C537.769 176.736 538.595 177.56 539.106 178.542C539.499 179.288 539.735 180.191 540.364 180.78C540.876 181.251 541.584 181.448 542.252 181.566C548.781 182.979 556.371 181.958 563.057 181.958C564.984 181.958 572.181 183.136 573.321 181.173C573.832 180.27 570.883 175.244 570.45 174.105C569.624 171.867 568.956 169.629 568.287 167.351C565.534 157.967 563.017 148.504 560.5 139.041C558.298 130.598 553.5 123.216 551.73 114.499C551.022 111.122 550.668 107.589 549.292 104.408C548.505 102.602 547.443 100.913 546.618 99.1071C544.887 95.3376 544.258 91.1361 543.275 87.0918C541.938 81.6338 539.892 76.3329 537.847 71.0713C535.96 66.2416 534.111 61.3726 532.224 56.5429C531.634 54.9722 530.886 51.0457 529.471 50.1425C528.173 49.318 523.807 50.1033 522.195 50.1033C511.655 50.1033 501.076 49.8284 490.575 50.1033C489.317 50.1033 488.727 50.1033 488.216 50.3781L488.176 50.4174ZM494.076 130.088L508.745 83.3615H509.767L524.476 130.088H494.076Z" fill="#F5F1E9"/>
<path d="M628.537 80.9663C629.56 80.4558 630.622 80.0632 631.644 79.6705C638.998 77.0004 647.179 76.058 654.612 78.414C663.736 81.3197 669.438 88.6231 670.657 97.9291H684.383C689.574 97.9291 699.406 100.403 701.569 94.1596C702.434 91.6859 701.962 88.898 701.176 86.385C698.855 78.9637 693.9 72.6812 689.023 66.595C678.72 53.6765 661.612 48.4148 645.488 48.8075C632.863 49.1216 619.649 51.2027 609.542 58.781C607.222 60.5087 605.137 62.5113 602.778 64.1605C601.126 65.3385 599.317 66.3594 597.704 67.6159C591.333 72.4848 588.187 81.5945 585.67 88.9765C582.72 97.6935 581.619 106.921 581.619 116.07C581.619 136.606 587.636 154.511 602.62 168.765C605.255 171.278 607.929 173.791 611.076 175.558C614.655 177.6 618.666 178.581 622.677 179.524C628.105 180.78 633.571 181.958 639.077 183.018C647.572 184.668 654.1 184.157 662.359 181.997C670.343 179.877 677.894 176.265 684.383 171.121C693.271 164.053 700.468 154.236 703.063 143.085C704.558 136.528 702.356 135.978 696.299 135.899C692.327 135.899 688.316 135.742 684.343 135.703C680.765 135.703 676.832 135.192 673.253 135.624C670.736 135.939 670.933 135.742 670.146 138.609C669.281 141.75 668.376 144.852 666.371 147.483C665.073 149.21 663.382 150.585 661.573 151.763C655.241 155.768 647.415 156.71 639.942 156.082C636.953 155.846 633.886 155.336 631.33 153.805C628.498 152.155 626.492 149.407 624.565 146.776C620.278 140.925 615.874 134.839 614.497 127.732C613.75 123.884 613.907 119.957 614.065 116.031C614.34 109.866 614.615 103.583 616.66 97.7328C617.604 95.102 618.863 92.6282 620.16 90.1545C621.419 87.7593 622.795 85.3248 624.801 83.5186C625.942 82.4584 627.239 81.6338 628.655 80.9663H628.537Z" fill="#F5F1E9"/>
<path d="M804.569 102.602C803.979 103.191 803.192 102.916 801.305 102.837C798.63 102.759 795.995 102.759 793.321 102.837C787.972 102.955 782.663 103.23 777.315 103.152C769.37 103.073 761.112 102.131 753.207 102.68C752.853 96.7512 753.128 90.1938 753.089 84.1468C753.089 77.2753 753.089 70.4037 753.128 63.4929C753.128 60.2731 753.207 57.0533 753.207 53.8335C753.207 49.9855 752.971 50.1033 749.195 50.1033C743.335 50.1033 737.475 50.1033 731.616 50.1033C729.453 50.1033 722.138 49.0038 720.761 50.8101C719.385 52.6163 720.761 60.4302 720.8 62.7076L720.918 75.5476C720.918 80.3773 720.997 85.207 720.761 90.0367C720.525 94.8664 719.975 99.7354 719.975 104.565C719.975 108.295 720.25 112.065 720.486 115.795C721.076 125.219 721.233 134.682 721.39 144.145C721.508 150.624 721.626 157.142 721.705 163.621C721.784 169.354 722.649 176.068 721.194 181.644C726.188 183.058 733.149 181.88 738.38 181.88C743.021 181.88 748.251 182.508 752.813 181.762C753.914 173.241 752.735 163.935 752.656 155.336C752.577 146.737 752.656 137.784 753.207 129.028C758.555 127.968 764.808 128.714 770.236 128.714C775.663 128.714 781.326 128.714 786.871 128.714C789.624 128.714 792.377 128.674 795.169 128.714C797.568 128.714 801.737 127.418 803.9 128.792C807.086 130.834 805.434 139.551 805.434 142.889C805.355 154.393 804.844 165.898 803.939 177.364C803.861 178.542 803.743 179.799 804.254 180.859C805.513 183.647 813.811 181.958 816.446 181.958C821.519 181.958 826.632 181.958 831.705 181.958C834.497 181.958 835.598 182.547 836.149 179.838C836.975 175.597 836.031 170.021 836.031 165.624C836.11 155.964 836.11 146.265 836.228 136.606C836.228 131.03 836.306 125.455 836.346 119.84C836.346 116.306 836.385 112.811 836.424 109.277C836.542 94.4345 836.621 79.5527 836.857 64.7102C836.896 61.0585 837.014 57.4067 837.053 53.755C837.053 49.0824 835.205 50.1818 830.918 50.1818C823.603 50.1818 816.288 50.1818 808.934 50.1818C805.788 50.1818 804.687 50.1033 804.451 53.5979C804.097 59.0166 804.647 64.6709 804.765 70.0896L805.08 85.7174L805.237 93.178C805.277 95.2983 806.181 99.4212 805.395 101.345C805.119 101.974 804.923 102.366 804.647 102.641L804.569 102.602Z" fill="#F5F1E9"/>
<path d="M950.357 56.1895C940.84 50.9671 930.182 48.3363 918.344 48.3363C892.899 48.3363 869.696 60.548 860.847 85.1285C856.324 97.6936 855.538 111.28 855.813 124.63C855.97 130.952 856.364 137.391 858.251 143.438C862.341 156.514 874.494 169.236 886.292 175.833C895.77 181.094 906.467 183.764 918.305 183.764C952.835 183.764 975.684 157.378 978.358 124.08C980.482 97.7328 975.016 69.8148 950.318 56.2288L950.357 56.1895ZM945.126 137.784C942.688 143.713 939.227 148.19 934.705 151.252C930.182 154.315 924.715 155.807 918.384 155.807C907.136 155.807 899.939 150.271 893.41 141.554C892.466 140.258 891.523 138.923 890.972 137.431C890.343 135.703 890.185 133.818 890.068 131.973C889.045 115.52 886.331 91.3718 902.062 80.8485C913.586 73.1524 928.53 76.1366 937.89 85.796C945.795 94.0026 948.784 104.918 948.784 116.031C948.784 124.63 947.565 131.855 945.126 137.784Z" fill="#F5F1E9"/>
<path d="M1080.45 50.1425V80.9663C1080.45 94.1596 1083.36 111.28 1079.94 124.041C1068.73 108.806 1057.45 93.5706 1045.41 78.6496C1039.36 71.1498 1034.24 63.3359 1029.33 55.0508C1026.18 49.7499 1025.91 50.1033 1019.34 49.7892C1014.3 49.5143 1009.19 49.0824 1004.2 50.1425C995.584 52.0273 998.887 79.6705 999.871 85.953C1000.3 88.5839 1000.89 91.1754 1001.05 93.8062C1001.21 96.2014 1000.97 98.5574 1000.74 100.953C999.595 113.007 999.556 125.219 999.556 137.391C998.927 146.776 998.258 156.16 997.707 165.584C997.393 170.846 996.095 178.032 1001.6 181.094C1009.9 185.649 1023.35 182.704 1032.32 181.801C1031.96 181.801 1029.48 106.096 1031.57 106.136C1031.45 106.136 1032.79 105.9 1032.71 105.9C1049.5 131.619 1067.71 156.632 1085.17 181.958C1092.29 181.958 1100.51 183.175 1107.47 181.958C1110.85 181.369 1110.54 182.547 1112.47 179.641C1114.08 177.207 1113.49 170.571 1113.65 167.665C1114.08 160.126 1113.96 152.548 1113.84 144.97L1113.13 99.3427C1112.9 84.8929 1114.28 69.4221 1112.47 55.09C1111.76 49.5143 1112.54 50.7708 1107.67 50.1818C1104.13 49.7499 1100.27 50.1818 1096.73 50.1818C1091.31 50.1818 1085.88 50.1818 1080.45 50.1818V50.1425Z" fill="#F5F1E9"/>
<path d="M958.537 0.196336C962.981 -0.746045 967.229 2.1989 970.729 5.06531C974.386 8.04952 977.926 11.1123 981.387 14.2535C981.819 14.6462 982.33 15.1174 982.37 15.7456C982.409 16.3346 982.055 16.8843 981.701 17.3555C974.347 27.7217 966.953 38.0487 959.599 48.4149C959.009 49.2394 958.301 50.1426 957.279 50.1818C956.61 50.1818 956.02 49.8284 955.43 49.475C950.829 46.5694 944.615 43.8993 940.682 40.1298C936.12 35.7712 938.716 34.554 942.098 29.2531C948.037 19.8685 953.503 10.1306 958.459 0.196336H958.537Z" fill="#F5F1E9"/>
</g>
<defs>
<clipPath id="clip0_273_1965">
<rect width="1114" height="184" fill="white"/>
</clipPath>
</defs>
</svg>
