<svg width="110" height="22" viewBox="0 0 110 22" fill="none" xmlns="http://www.w3.org/2000/svg">
<g clip-path="url(#clip0_273_656)">
<path d="M6.30264 14.0072H6.1972C5.53823 11.8108 4.85667 9.62206 4.16381 7.43332C4.0772 7.15733 3.9906 6.88134 3.90399 6.60918C3.73077 6.05721 3.64793 5.34807 3.39564 4.83442C3.24126 4.51627 3.17724 4.58527 2.78939 4.58527C2.49944 4.58527 2.2095 4.58527 1.92332 4.58527C1.33966 4.58527 0.556426 4.45111 -0.00463867 4.61593C0.168576 5.82338 0.752234 7.096 1.11749 8.26512C1.50911 9.51856 1.90072 10.7758 2.29234 12.0293C2.40531 12.3973 2.52204 12.7653 2.65007 13.1256C3.04168 14.2334 3.55379 15.2913 3.92658 16.4068C4.05085 16.7748 4.05838 17.3459 4.41234 17.4494C4.61191 17.5069 4.91692 17.4494 5.12402 17.4494H8.28708C8.67493 16.2841 9.05901 15.1188 9.44686 13.9535C10.1134 11.9411 10.8363 9.96321 11.5028 7.95079C11.6874 7.39498 11.8643 6.83917 12.03 6.27953C12.1806 5.77738 12.4631 5.16024 12.4744 4.63893C11.4953 4.6696 10.4259 4.45111 9.45439 4.58527C9.03265 4.64276 8.9724 5.07208 8.82555 5.47073C8.63727 5.97288 8.48288 6.48652 8.33603 7.00783C8.04608 8.04279 7.80885 9.09691 7.4436 10.1089C7.13482 10.9598 6.93901 11.8913 6.67543 12.7691C6.65283 12.8496 6.36289 14.011 6.30264 14.011V14.0072Z" fill="#1F2622"/>
<path d="M13.8834 17.475C13.8834 17.3906 15.3645 17.406 15.47 17.406C15.8373 17.406 16.2086 17.406 16.5759 17.406C16.8651 17.406 16.9667 17.4711 17.0527 17.2258C17.1504 16.9498 17.0527 16.4592 17.0527 16.1679C17.0527 15.6082 17.0527 15.0524 17.0527 14.4928C17.0527 11.7636 17.0527 9.03435 17.0527 6.30514C17.0527 6.21697 17.0527 4.60705 17.0527 4.60705H15.8295C15.3567 4.60705 14.5282 4.44222 14.0866 4.60705C13.9147 4.67221 13.9655 4.56871 13.8912 4.77187C13.8091 4.9942 13.9186 5.44651 13.9264 5.68416C13.9459 6.2898 13.9576 6.89928 13.9655 7.50875C13.9811 8.69703 13.9811 9.88531 13.9772 11.0736C13.9772 11.3457 13.9772 11.6179 13.9772 11.8901C13.9772 13.7491 13.8795 15.6082 13.8795 17.4711L13.8834 17.475Z" fill="#1F2622"/>
<path d="M19.0649 7.0825V7.17415C19.0649 7.00231 21.8564 7.10159 22.1153 7.11305C22.6368 7.13596 23.1621 7.15887 23.6836 7.15887C24.1676 7.15887 24.7041 6.99467 25.1769 7.10541C24.8692 7.81949 24.2126 8.50302 23.7624 9.13691C23.3722 9.68679 22.9857 10.2329 22.5955 10.7827C22.1828 11.3632 21.7701 11.9436 21.3611 12.524C20.9709 13.0739 20.577 13.6276 20.1868 14.1775C19.9842 14.4639 19.7778 14.7503 19.5752 15.0367C19.4026 15.2811 19.1137 15.4873 19.0162 15.7851C18.8924 16.1746 18.9711 16.7321 18.9561 17.1407C18.9411 17.6257 20.168 17.4424 20.4869 17.4347C21.4287 17.4118 22.3704 17.3966 23.3122 17.3813C24.2802 17.3698 25.2482 17.3622 26.2162 17.3584C26.7002 17.3584 27.1842 17.3584 27.6682 17.3584C27.8933 17.3584 28.8875 17.5035 29.0301 17.3469C29.2027 17.1598 29.0526 16.2166 29.0526 15.9684C29.0526 15.7202 29.1614 15.1474 29.0301 14.945C28.8725 14.7006 28.5086 14.8037 28.246 14.8075C27.4918 14.819 26.7377 14.8305 25.9798 14.8419C25.4395 14.8495 24.903 14.8572 24.3627 14.8648C23.9237 14.8725 23.3797 14.9641 22.9557 14.8648C23.1883 14.4104 23.571 13.9827 23.8712 13.5665C23.8712 13.3985 24.2952 12.9746 24.4002 12.8295C24.5991 12.5546 24.7829 12.2453 25.0043 11.9894C25.2894 11.661 25.5896 11.3364 25.7847 10.9469C25.9798 10.5574 26.2237 10.2901 26.4788 9.935L27.3267 8.75123C27.8595 8.0066 28.4073 7.27725 28.9326 6.52498C29.0039 6.4257 29.0751 6.31878 29.0939 6.2004C29.1089 6.0973 29.0864 5.9942 29.0714 5.89109C29.0114 5.55506 29.0301 5.22284 29.0039 4.8868C28.9738 4.49348 28.9213 4.56604 28.5236 4.56604C27.8783 4.56604 27.2367 4.56604 26.5914 4.56604H20.0405C19.8341 4.56604 19.4702 4.49348 19.2751 4.56604C18.9411 4.69205 19.0762 5.24957 19.0724 5.60088L19.0537 7.07868L19.0649 7.0825Z" fill="#1F2622"/>
<path d="M34.5393 7.6227C34.5653 7.60769 34.5876 7.59268 34.6137 7.58142C35.5844 7.04095 36.8379 7.17231 37.7938 7.73905C37.9314 7.82162 38.069 7.91545 38.1583 8.05057C38.2252 8.15566 38.2624 8.27577 38.2959 8.39587C38.3777 8.68112 38.5004 8.97762 38.5376 9.26662C38.5414 9.30415 41.1487 9.26662 41.3569 9.27413C41.409 9.27413 41.4685 9.27413 41.5094 9.24035C41.5392 9.21408 41.5504 9.17279 41.5615 9.13526C41.6396 8.80122 41.4685 8.47469 41.3718 8.17067C41.2751 7.86666 41.1673 7.55139 41.0148 7.25864C40.7098 6.67313 40.3155 6.1777 39.8283 5.77235C39.341 5.367 38.7757 5.05924 38.1322 4.84906C37.4888 4.63887 36.7895 4.53378 36.0345 4.53378C33.8847 4.53378 31.5117 5.72731 30.6934 7.8479C30.5484 8.22322 30.4703 8.61731 30.3996 9.01515C30.2768 9.69449 30.169 10.3738 30.0797 11.0569C30.0537 11.2408 30.0314 11.421 30.0388 11.6049C30.0462 11.8489 30.1058 12.0853 30.1653 12.3218C30.3066 12.896 30.4517 13.4703 30.593 14.0445C30.7232 14.57 31.1844 15.0541 31.5266 15.4707C31.9394 15.9774 32.4415 16.4015 33.0106 16.7206C33.9033 17.2235 34.9149 17.475 36.0419 17.475C36.9011 17.475 37.6599 17.3436 38.3256 17.0809C39.3819 16.6643 40.3936 15.9699 40.9329 14.9415C41.2045 14.4236 41.383 13.8606 41.5504 13.3014C41.5913 13.17 41.6247 13.0086 41.5355 12.9073C41.4611 12.8209 41.3309 12.8134 41.2156 12.8134C40.7581 12.8134 40.3006 12.8247 39.8431 12.8472C39.4898 12.866 39.0435 12.7721 38.7087 12.881C38.4744 12.9561 38.5302 13.1362 38.4372 13.3877C38.3331 13.6654 38.1731 13.9206 37.9611 14.1271C37.552 14.5287 36.9829 14.7388 36.4139 14.7689C35.8448 14.7989 35.2757 14.6638 34.7476 14.4423C34.5876 14.3748 34.4277 14.2997 34.2938 14.1871C34.1487 14.0633 34.0409 13.9056 33.9442 13.7405C33.3268 12.6971 33.0924 11.451 33.1891 10.2387C33.2077 9.99475 33.2412 9.75079 33.323 9.51809C33.416 9.24785 33.5722 9.00765 33.695 8.75243C33.814 8.50847 33.907 8.25325 34.0706 8.03931C34.1971 7.87417 34.3645 7.73905 34.543 7.63021L34.5393 7.6227Z" fill="#1F2622"/>
<path d="M46.8089 4.59742C46.7749 4.61659 46.7447 4.65493 46.6993 4.72777C46.431 5.13797 46.3328 5.83569 46.1779 6.3034C45.8227 7.36915 45.4713 8.43107 45.1161 9.49683C44.9649 9.9492 44.8176 10.3977 44.6324 10.8348C44.3566 11.4903 44.1374 12.1881 43.9976 12.8858C43.9485 13.1311 43.8956 13.3803 43.8162 13.618C43.6537 14.0819 43.495 14.5381 43.3023 14.9828C43.1663 15.301 43.0718 15.6345 42.9736 15.968C42.8338 16.4587 42.7204 16.9725 42.5164 17.4402C42.5504 17.3596 43.8578 17.4402 44.0051 17.4402C44.5757 17.4363 45.1463 17.4287 45.7206 17.4248C45.7471 17.4248 45.7735 17.4248 45.7962 17.4095C45.8264 17.3942 45.8416 17.3596 45.8529 17.329C46.0456 16.8498 46.193 16.3514 46.329 15.853C46.4273 15.508 46.4348 14.8294 46.8165 14.6914C46.994 14.6263 47.1868 14.6454 47.3719 14.6646C48.2032 14.7451 49.0383 14.7719 49.8696 14.7489C50.1341 14.7413 50.7311 14.5189 50.9578 14.7068C51.1014 14.8256 51.1014 15.3201 51.143 15.508C51.2148 15.8415 51.3055 16.1751 51.3924 16.5047C51.4226 16.6198 51.4528 16.7348 51.5171 16.8383C51.5738 16.9303 51.6531 17.0108 51.7022 17.1066C51.74 17.1795 51.7627 17.2676 51.8231 17.3251C51.8723 17.3712 51.9403 17.3903 52.0045 17.4018C52.6318 17.5398 53.3611 17.4402 54.0034 17.4402C54.1886 17.4402 54.8801 17.5552 54.9896 17.3635C55.0388 17.2753 54.7554 16.7846 54.7138 16.6734C54.6345 16.4549 54.5702 16.2364 54.506 16.014C54.2415 15.0978 53.9996 14.1739 53.7578 13.25C53.5462 12.4257 53.0852 11.705 52.9152 10.8539C52.8472 10.5242 52.8132 10.1792 52.6809 9.86869C52.6053 9.69235 52.5033 9.5275 52.424 9.35115C52.2577 8.98312 52.1972 8.57292 52.1028 8.17805C51.9743 7.64517 51.7778 7.12763 51.5813 6.61392C51.3999 6.14238 51.2223 5.66701 51.041 5.19547C50.9843 5.04212 50.9125 4.65876 50.7765 4.57059C50.6518 4.49008 50.2323 4.56675 50.0774 4.56675C49.0647 4.56675 48.0483 4.53992 47.0394 4.56675C46.9185 4.56675 46.8618 4.56675 46.8127 4.59359L46.8089 4.59742ZM47.3757 12.3759L48.7851 7.81386H48.8834L50.2966 12.3759H47.3757Z" fill="#1F2622"/>
<path d="M60.545 7.6138C60.6458 7.56494 60.7505 7.52735 60.8513 7.48977C61.5763 7.23421 62.3827 7.14401 63.1154 7.3695C64.0149 7.64762 64.5771 8.34667 64.6973 9.23738H66.0504C66.5621 9.23738 67.5314 9.47416 67.7446 8.87659C67.8299 8.63981 67.7834 8.37297 67.7058 8.13244C67.4771 7.42212 66.9886 6.82079 66.5078 6.23825C65.4921 5.00177 63.8056 4.49816 62.216 4.53574C60.9714 4.56581 59.6688 4.765 58.6724 5.49035C58.4436 5.65572 58.2381 5.84739 58.0055 6.00524C57.8427 6.11799 57.6643 6.2157 57.5054 6.33597C56.8773 6.802 56.5671 7.67393 56.319 8.38049C56.0282 9.21483 55.9197 10.098 55.9197 10.9737C55.9197 12.9393 56.5129 14.6531 57.99 16.0174C58.2498 16.2579 58.5134 16.4984 58.8236 16.6676C59.1764 16.863 59.5718 16.957 59.9673 17.0472C60.5023 17.1674 61.0412 17.2802 61.584 17.3816C62.4215 17.5395 63.065 17.4906 63.8792 17.2839C64.6663 17.081 65.4106 16.7352 66.0504 16.2429C66.9266 15.5664 67.6361 14.6268 67.8919 13.5594C68.0393 12.9318 67.8222 12.8792 67.2251 12.8717C66.8335 12.8717 66.4381 12.8566 66.0465 12.8529C65.6937 12.8529 65.306 12.804 64.9532 12.8454C64.705 12.8754 64.7244 12.8566 64.6469 13.131C64.5616 13.4317 64.4724 13.7286 64.2747 13.9804C64.1467 14.1457 63.98 14.2773 63.8017 14.39C63.1775 14.7734 62.4059 14.8636 61.6693 14.8034C61.3747 14.7809 61.0722 14.732 60.8202 14.5855C60.5411 14.4276 60.3434 14.1645 60.1534 13.9127C59.7308 13.3527 59.2966 12.7702 59.1609 12.0899C59.0872 11.7216 59.1027 11.3458 59.1182 10.97C59.1454 10.3799 59.1725 9.77858 59.3741 9.21859C59.4672 8.96679 59.5912 8.73001 59.7192 8.49324C59.8432 8.26398 59.9789 8.03097 60.1767 7.85809C60.2891 7.75661 60.417 7.67769 60.5566 7.6138H60.545Z" fill="#1F2622"/>
<path d="M77.3377 9.68614C77.2818 9.74358 77.2073 9.71678 77.0285 9.70912C76.7751 9.70146 76.5254 9.70146 76.2721 9.70912C75.7653 9.7206 75.2623 9.74741 74.7556 9.73975C74.0029 9.73209 73.2204 9.64019 72.4715 9.6938C72.438 9.11554 72.4641 8.47602 72.4603 7.88628C72.4603 7.21611 72.4603 6.54595 72.4641 5.87196C72.4641 5.55794 72.4715 5.24392 72.4715 4.92991C72.4715 4.55461 72.4491 4.5661 72.0914 4.5661C71.5363 4.5661 70.9811 4.5661 70.4259 4.5661C70.221 4.5661 69.5279 4.45888 69.3975 4.63503C69.2671 4.81119 69.3975 5.57326 69.4012 5.79537L69.4124 7.04762C69.4124 7.51864 69.4199 7.98967 69.3975 8.4607C69.3752 8.93173 69.323 9.40659 69.323 9.87761C69.323 10.2414 69.3491 10.609 69.3714 10.9728C69.4273 11.8919 69.4422 12.8148 69.4571 13.7377C69.4683 14.3696 69.4795 15.0053 69.4869 15.6372C69.4944 16.1963 69.5764 16.8511 69.4385 17.3949C69.9117 17.5328 70.5712 17.4179 71.0668 17.4179C71.5065 17.4179 72.002 17.4792 72.4342 17.4064C72.5386 16.5754 72.4268 15.6678 72.4193 14.8292C72.4119 13.9905 72.4193 13.1174 72.4715 12.2634C72.9782 12.16 73.5707 12.2328 74.0849 12.2328C74.5991 12.2328 75.1356 12.2328 75.661 12.2328C75.9218 12.2328 76.1826 12.2289 76.4472 12.2328C76.6745 12.2328 77.0694 12.1064 77.2744 12.2404C77.5762 12.4395 77.4197 13.2897 77.4197 13.6152C77.4122 14.7372 77.3638 15.8593 77.2781 16.9775C77.2707 17.0924 77.2595 17.2149 77.3079 17.3183C77.4271 17.5902 78.2133 17.4256 78.463 17.4256C78.9437 17.4256 79.428 17.4256 79.9087 17.4256C80.1732 17.4256 80.2776 17.483 80.3297 17.2188C80.408 16.8052 80.3186 16.2614 80.3186 15.8325C80.326 14.8904 80.326 13.9445 80.3372 13.0025C80.3372 12.4587 80.3446 11.9149 80.3484 11.3673C80.3484 11.0226 80.3521 10.6818 80.3558 10.3372C80.367 8.8896 80.3744 7.43823 80.3968 5.99068C80.4005 5.63453 80.4117 5.27839 80.4154 4.92225C80.4154 4.46654 80.2403 4.57376 79.8342 4.57376C79.1411 4.57376 78.4481 4.57376 77.7513 4.57376C77.4532 4.57376 77.3489 4.5661 77.3265 4.90693C77.293 5.4354 77.3452 5.98685 77.3564 6.51532L77.3862 8.03946L77.4011 8.76706C77.4048 8.97385 77.4905 9.37595 77.416 9.5636C77.3899 9.62487 77.3713 9.66316 77.3452 9.68997L77.3377 9.68614Z" fill="#1F2622"/>
<path d="M91.505 5.28422C90.5752 4.78518 89.5341 4.53379 88.3777 4.53379C85.892 4.53379 83.6253 5.70071 82.7609 8.04956C82.3191 9.25025 82.2423 10.5485 82.2692 11.8242C82.2845 12.4283 82.323 13.0437 82.5074 13.6215C82.9069 14.871 84.094 16.0867 85.2466 16.717C86.1725 17.2198 87.2175 17.475 88.3739 17.475C91.747 17.475 93.9791 14.9535 94.2404 11.7717C94.4478 9.254 93.9138 6.58622 91.5011 5.28797L91.505 5.28422ZM90.994 13.0812C90.7558 13.6478 90.4177 14.0755 89.9759 14.3682C89.5341 14.6609 89.0001 14.8034 88.3816 14.8034C87.2828 14.8034 86.5797 14.2744 85.942 13.4414C85.8498 13.3176 85.7576 13.19 85.7038 13.0474C85.6423 12.8823 85.6269 12.7022 85.6154 12.5259C85.5155 10.9537 85.2504 8.64615 86.7872 7.64057C87.9128 6.90515 89.3727 7.19032 90.2871 8.11335C91.0593 8.89755 91.3513 9.94064 91.3513 11.0025C91.3513 11.8242 91.2322 12.5146 90.994 13.0812Z" fill="#1F2622"/>
<path d="M104.036 4.59919V7.57363C104.036 8.84677 104.312 10.4988 103.987 11.7303C102.921 10.2601 101.847 8.78993 100.702 7.35007C100.126 6.62636 99.6396 5.87232 99.172 5.07282C98.8727 4.5613 98.8465 4.5954 98.2217 4.56508C97.7428 4.53856 97.2565 4.49688 96.7813 4.59919C95.962 4.78106 96.2763 7.44859 96.3698 8.05485C96.4109 8.30872 96.4671 8.5588 96.482 8.81267C96.497 9.0438 96.4745 9.27115 96.4521 9.50228C96.3436 10.6655 96.3399 11.844 96.3399 13.0186C96.28 13.9242 96.2164 14.8298 96.164 15.7391C96.1341 16.2469 96.0106 16.9403 96.5344 17.2358C97.3238 17.6754 98.6033 17.3912 99.4563 17.304C99.4226 17.304 99.1869 9.99866 99.3852 10.0024C99.374 10.0024 99.5012 9.97971 99.4937 9.97971C101.091 12.4616 102.823 14.8752 104.485 17.3192C105.162 17.3192 105.944 17.4367 106.606 17.3192C106.928 17.2624 106.898 17.376 107.081 17.0956C107.234 16.8607 107.178 16.2204 107.193 15.94C107.234 15.2125 107.223 14.4812 107.212 13.7499L107.145 9.34693C107.122 7.95254 107.253 6.45964 107.081 5.07661C107.014 4.53856 107.088 4.65981 106.625 4.60298C106.288 4.5613 105.921 4.60298 105.584 4.60298C105.068 4.60298 104.552 4.60298 104.036 4.60298V4.59919Z" fill="#1F2622"/>
</g>
<defs>
<clipPath id="clip0_273_656">
<rect width="110" height="22" fill="white"/>
</clipPath>
</defs>
</svg>
