<?xml version="1.0" encoding="UTF-8"?>
<svg id="Capa_1" data-name="Capa 1" xmlns="http://www.w3.org/2000/svg" viewBox="0 0 99.12 34.15">
  <defs>
    <style>
      .cls-1 {
        fill: #d14116;
        stroke-width: 0px;
      }
    </style>
  </defs>
  <path class="cls-1" d="M16.74,24.91h-.28c-1.75-5.73-3.56-11.44-5.4-17.15-.23-.72-.46-1.44-.69-2.15-.46-1.44-.68-3.29-1.35-4.63-.41-.83-.58-.65-1.61-.65-.77,0-1.54,0-2.3,0C3.56.33,1.48-.02,0,.4c.46,3.15,2.01,6.47,2.98,9.52,1.04,3.27,2.08,6.55,3.12,9.82.3.96.61,1.92.95,2.86,1.04,2.89,2.4,5.65,3.39,8.56.33.96.35,2.45,1.29,2.72.53.15,1.34,0,1.89,0h8.4c1.03-3.04,2.05-6.08,3.08-9.12,1.77-5.25,3.69-10.41,5.46-15.66.49-1.45.96-2.9,1.4-4.36.4-1.31,1.15-2.92,1.18-4.28-2.6.08-5.44-.49-8.02-.14-1.12.15-1.28,1.27-1.67,2.31-.5,1.31-.91,2.65-1.3,4.01-.77,2.7-1.4,5.45-2.37,8.09-.82,2.22-1.34,4.65-2.04,6.94-.06.21-.83,3.24-.99,3.24Z"/>
  <path class="cls-1" d="M36.64,6.91v.24c0-.45,7.44-.19,8.13-.16,1.39.06,2.79.12,4.18.12,1.29,0,2.72-.43,3.98-.14-.82,1.87-2.57,3.66-3.77,5.32-1.04,1.44-2.07,2.87-3.11,4.31-1.1,1.52-2.2,3.04-3.29,4.56-1.04,1.44-2.09,2.89-3.13,4.33-.54.75-1.09,1.5-1.63,2.25-.46.64-1.23,1.18-1.49,1.96-.33,1.02-.12,2.48-.16,3.55-.04,1.27,3.23.79,4.08.77,2.51-.06,5.02-.1,7.53-.14,2.58-.03,5.16-.05,7.74-.06,1.29,0,2.58,0,3.87,0,.6,0,3.25.38,3.63-.03.46-.49.06-2.96.06-3.61s.29-2.15-.06-2.68c-.42-.64-1.39-.37-2.09-.36-2.01.03-4.02.06-6.04.09-1.44.02-2.87.04-4.31.06-1.17.02-2.62.26-3.75,0,.62-1.19,1.64-2.31,2.44-3.4,0-.44,1.13-1.55,1.41-1.93.53-.72,1.02-1.53,1.61-2.2.76-.86,1.56-1.71,2.08-2.73s1.17-1.72,1.85-2.65l2.26-3.1c1.42-1.95,2.88-3.86,4.28-5.83.19-.26.38-.54.43-.85.04-.27-.02-.54-.06-.81-.16-.88-.11-1.75-.18-2.63-.08-1.03-.22-.84-1.28-.84-1.72,0-3.43,0-5.15,0h-17.46c-.55,0-1.52-.19-2.04,0-.89.33-.53,1.79-.54,2.71l-.05,3.87Z"/>
  <path class="cls-1" d="M90.59.18v7.85c0,3.36.74,7.72-.13,10.97-2.85-3.88-5.72-7.76-8.78-11.56-1.54-1.91-2.84-3.9-4.09-6.01-.8-1.35-.87-1.26-2.54-1.34-1.28-.07-2.58-.18-3.85.09-2.19.48-1.35,7.52-1.1,9.12.11.67.26,1.33.3,2,.04.61-.02,1.21-.08,1.82-.29,3.07-.3,6.18-.3,9.28-.16,2.39-.33,4.78-.47,7.18-.08,1.34-.41,3.17.99,3.95,2.11,1.16,5.53.41,7.81.18-.09,0-.72-19.28-.19-19.27-.03,0,.31-.06.29-.06,4.27,6.55,8.9,12.92,13.34,19.37,1.81,0,3.9.31,5.67,0,.86-.15.78.15,1.27-.59.41-.62.26-2.31.3-3.05.11-1.92.08-3.85.05-5.78l-.18-11.62c-.06-3.68.29-7.62-.17-11.27-.18-1.42.02-1.1-1.22-1.25-.9-.11-1.88,0-2.78,0-1.38,0-2.76,0-4.14,0Z"/>
</svg>