<?xml version="1.0" encoding="UTF-8"?>
<svg id="Capa_1" xmlns="http://www.w3.org/2000/svg" viewBox="0 0 29.07 10.02">
  <defs>
    <style>
      .cls-1 {
        fill: #1e2622;
      }
    </style>
  </defs>
  <path class="cls-1" d="M6.12,6.85h-.06c-.41-1.33-.83-2.66-1.25-3.98-.05-.17-.11-.33-.16-.5-.11-.33-.16-.76-.31-1.08-.1-.19-.14-.15-.37-.15-.18,0-.36,0-.53,0-.36,0-.84-.08-1.19.02.11.73.47,1.5.69,2.21l.72,2.28c.07.22.14.44.22.66.24.67.56,1.31.79,1.99.08.22.08.57.3.63.12.04.31,0,.44,0h1.95c.24-.71.48-1.41.71-2.12.41-1.22.86-2.42,1.27-3.64.11-.34.22-.67.33-1.01.09-.3.27-.68.27-.99-.6.02-1.26-.11-1.86-.03-.26.04-.3.3-.39.54-.12.3-.21.62-.3.93-.18.63-.32,1.27-.55,1.88-.19.51-.31,1.08-.47,1.61-.01.05-.19.75-.23.75Z"/>
  <path class="cls-1" d="M10.74,2.68v.06c0-.11,1.73-.04,1.89-.04.32.01.65.03.97.03.3,0,.63-.1.92-.03-.19.43-.6.85-.88,1.24-.24.33-.48.67-.72,1-.25.35-.51.71-.76,1.06-.24.34-.48.67-.73,1.01-.13.17-.25.35-.38.52-.11.15-.29.27-.34.45-.08.24-.03.58-.04.82-.01.3.75.18.95.18.58-.01,1.17-.02,1.75-.03s1.2-.01,1.8-.01c.3,0,.6,0,.9,0,.14,0,.75.09.84,0,.11-.11.01-.69.01-.84s.07-.5-.01-.62c-.1-.15-.32-.09-.49-.08-.47,0-.93.01-1.4.02h-1c-.27.02-.61.07-.87.01.14-.28.38-.54.57-.79,0-.1.26-.36.33-.45.12-.17.24-.35.37-.51.18-.2.36-.4.48-.63s.27-.4.43-.62l.52-.72c.33-.45.67-.9.99-1.35.04-.06.09-.12.1-.2.01-.06,0-.13-.01-.19-.04-.2-.03-.41-.04-.61-.02-.24-.05-.19-.3-.19-.4,0-.8,0-1.19,0h-4.05c-.13,0-.35-.04-.47,0-.21.08-.12.42-.12.63v.9Z"/>
  <path class="cls-1" d="M23.26,1.11v1.82c0,.78.17,1.79-.03,2.55-.66-.9-1.33-1.8-2.04-2.68-.36-.44-.66-.91-.95-1.4-.19-.31-.2-.29-.59-.31-.3-.02-.6-.04-.89.02-.51.11-.31,1.75-.25,2.12.02.15.06.31.07.46,0,.14,0,.28-.02.42-.07.71-.07,1.44-.07,2.16-.04.56-.08,1.11-.11,1.67-.02.31-.1.74.23.92.49.27,1.28.09,1.81.04-.02,0-.17-4.48-.04-4.47,0,0,.07-.01.07-.01.99,1.52,2.07,3,3.1,4.5.42,0,.91.07,1.32,0,.2-.04.18.03.29-.14.09-.14.06-.54.07-.71.03-.45.02-.89.01-1.34l-.04-2.7c-.01-.85.07-1.77-.04-2.62-.04-.33,0-.26-.28-.29-.21-.03-.44,0-.65,0-.32,0-.64,0-.96,0Z"/>
</svg>