<?xml version="1.0" encoding="UTF-8"?>
<svg id="Capa_1" xmlns="http://www.w3.org/2000/svg" viewBox="0 0 42.52 16.26">
  <defs>
    <style>
      .cls-1 {
        fill: #1e2622;
      }
    </style>
  </defs>
  <g>
    <path class="cls-1" d="M10.62,8.84s-.04.02-.06.02c.09-.04.55.42.62.48.2.18.39.38.57.59s.33.44.47.67c.12.2.51.62.24.84-.14.11-.43.07-.59.08l-.69.05c-.16.01-.34.02-.48-.06-.1-.06-.17-.16-.24-.26-.05-.08-.11-.16-.16-.24-.39-.57-.78-1.15-1.13-1.75-.06-.11-.14-.3-.25-.36-.14-.08-.39-.03-.55-.03-.03,0-.07,0-.1.02-.03.02-.04.07-.05.11-.04.37-.02.73,0,1.1.03.49.06.98.09,1.47-.59,0-1.17,0-1.76-.01,0-.65.05-1.31.01-1.96-.1-1.75-.05-3.53,0-5.28,0-.05.69-.12.76-.12.22-.02.38,0,.58.04.53.09,1.11,0,1.65.05.37.03.75.08,1.1.22.6.25,1.07.77,1.27,1.38.36,1.12-.23,2.46-1.3,2.93ZM8.1,5.54l.02,1.04c0,.32,0,.67.02.99.01.17,0,.14.17.17.15.03.31.03.46.03.61,0,1.22-.14,1.76-.43.07-.04.14-.08.18-.14.04-.06.04-.14.04-.21.01-.32.02-.67-.16-.93-.13-.19-.33-.31-.53-.4-.61-.28-1.31-.36-1.96-.23v.12Z"/>
    <path class="cls-1" d="M13.16,11.31s-.02-.02-.03-.03c-.1-.18.1-.74.15-.93.08-.32.2-.63.34-.92.2-.41.47-.8.69-1.2.2-.36.37-.73.54-1.1.36-.8.7-1.61,1.09-2.4.19-.4.52-.32.94-.36.3-.03.86-.22,1.02,0,.12.17.12.6.21.81.11.26.25.51.39.76.99,1.74,2.13,3.41,2.72,5.32-.36.25-1.12.76-1.46.25-.12-.19-.52-1.75-.67-1.73-1.24.16-2.5.19-3.74.08-.06,0-.12,0-.18.02-.05.03-.08.09-.11.14l-.64,1.35c-.07.15-1.04.08-1.24-.06ZM17.13,5.7c-.02.09-.09.16-.15.24-.11.15-.15.34-.2.51-.19.6-.57,1.11-.78,1.7-.05.13-.1.22.06.26.1.02.2.02.3.02.18,0,.36,0,.53,0,.36,0,.71,0,1.07,0,.13,0,.32.05.26-.13-.02-.05-.04-.1-.06-.14-.1-.24-.2-.47-.3-.71-.08-.19-.21-.33-.3-.52-.1-.2-.17-.41-.23-.62-.03-.11-.07-.21-.1-.32-.02-.07-.12-.23-.1-.3Z"/>
    <path class="cls-1" d="M21.97,4.35c.2-.13.57-.05.78-.05.36,0,.72,0,1.08,0,.05,0,.11,0,.15.03.05.03.08.08.11.14.53.97,1,1.96,1.43,2.98.24-.47.6-.88.83-1.35.21-.44.32-.93.56-1.36.25-.43.45-.44.92-.47s.97-.03,1.46-.02c-.05,1.49-.04,2.99-.02,4.48,0,.74.02,1.48.02,2.21,0,.45.02.49-.43.51-.09,0-1,.07-1,.13,0-.86,0-1.72,0-2.58,0-.43-.02-.86-.03-1.29-.01-.36.05-.86-.06-1.19-.35.55-.6,1.21-.89,1.8-.18.36-.35.72-.53,1.08-.11.23-.13.25-.39.28-.19.03-.39.04-.58.04-.12,0-.26,0-.36-.08-.05-.04-.09-.09-.12-.14-.21-.33-.34-.77-.52-1.13-.21-.42-.42-.84-.63-1.26-.07-.13-.13-.34-.23-.45-.26-.28-.15.42-.15.61,0,.84.02,1.69.03,2.53,0,.29,0,.58.01.88,0,.14.09.67,0,.76-.09.08-.6.02-.72.03-.25,0-.51,0-.76-.03.06,0-.02-1.63-.03-1.76-.02-.34-.1-.7-.09-1.04.01-.71.03-1.41-.01-2.11-.02-.38-.06-.77-.06-1.16,0-.26-.05-.74.15-.96.02-.02.04-.04.06-.05Z"/>
    <path class="cls-1" d="M33.99,11.57c-.97-.02-1.99-.5-2.62-1.13-1.05-1.06-1.35-2.5-.82-3.89.38-1,1.2-1.8,2.21-2.16,1.21-.44,2.36-.13,3.37.65.53.41.98.95,1.21,1.58.27.73.37,1.53.17,2.29-.1.37-.27.84-.54,1.11-.24.24-.57.43-.84.65-.3.25-.61.5-.96.67-.36.18-.76.25-1.18.24ZM31.75,7.86c.14,1.02.75,1.84,1.74,2.18.54.18,1.18.19,1.65-.13.45-.3.68-.84.89-1.34.08-.19.16-.37.17-.58.08-.89-.79-1.62-1.43-2.07-.1-.07-.21-.15-.33-.18-.12-.03-.26-.02-.38,0-.4.04-.83.08-1.15.33-.15.12-.27.27-.4.4-.19.19-.43.34-.6.55-.17.21-.2.53-.15.85Z"/>
  </g>
  <path class="cls-1" d="M21.23,16.24c-.56-.05-1.13-.18-1.68-.29-1.68-.31-3.38-.21-5.05-.51s-3.41-.68-5.1-1.11c-2.69-.67-5.36-1.15-7.53-2.98C-.06,9.73-.78,7.46,1.07,5.44c.88-.96,2.07-2.17,3.35-2.53,1.11-.31,2.17-.82,3.29-1.16,2.38-.72,4.83-1.17,7.29-1.44,1.17-.13,2.33-.04,3.51-.13,1.58-.12,3.09-.22,4.66-.17,1.43.05,2.93.32,4.35.19s3.13.32,4.51.74c.36.11.72.23,1.03.43.27.17.5.39.78.54.32.17.69.23,1.04.32.49.13.95.33,1.44.46.46.11.93.04,1.36.15.78.21,1.62.78,2.28,1.23,1.33.91,2.55,2.22,2.55,3.92,0,1.79-1.46,3.16-2.86,4.07-2.23,1.46-4.89,2.26-7.47,2.84-2.19.49-4.42.65-6.65.84-1.02.09-2,.19-2.98.43-.44.11-.89.12-1.33.07ZM21.2.85c-.1,0-.2.01-.3.02-1.14.08-2.29-.2-3.43-.13-1.34.08-2.68.29-4,.52-2.51.44-5.03,1-7.4,1.98-2.12.87-4.62,1.9-4.49,4.58.05.94.37,1.84.74,2.71.3.69,1.18,1.05,1.83,1.39.75.39,1.53.72,2.32,1.01,1.93.71,3.94,1.18,5.96,1.53,2.9.5,5.84.72,8.78.72,4.81,0,9.78-.52,14.34-2.11,2.08-.72,7.6-2.99,5.7-6-.21-.33-.47-.63-.72-.93-.33-.39-.65-.78-.98-1.17-.22-.26-.44-.52-.72-.72-.42-.3-.94-.41-1.45-.51-.94-.17-1.92-.28-2.78-.69-.63-.3-1.17-.76-1.81-1.03-.59-.25-1.23-.34-1.87-.42-2.38-.3-4.77-.56-7.17-.75-.89-.07-1.69-.05-2.55,0Z"/>
</svg>