<svg width="246" height="246" viewBox="0 0 246 246" fill="none" xmlns="http://www.w3.org/2000/svg">
<g clip-path="url(#clip0_273_1944)">
<path d="M173.006 126.628C172.317 127.017 172.098 127.91 172.524 128.58C173.151 129.553 173.729 130.453 174.209 131.407C175.768 134.57 178.421 136.161 181.705 136.946C184.713 137.664 186.914 139.344 188.376 142.097C190.109 145.355 192.833 147.546 196.163 149.041C200.726 151.092 205.416 152.635 210.45 153.028C213.967 153.303 216.853 154.848 219.345 157.376C224.097 162.186 228.977 166.873 233.811 171.605C233.965 171.756 234.167 171.873 234.258 172.046C234.577 172.612 234.847 173.211 235.141 173.793C234.51 173.934 233.844 174.293 233.258 174.19C228.194 173.297 223.53 171.379 219.285 168.473C218.242 167.758 217.197 167.029 216.199 166.254C213.306 163.995 210.174 163.626 206.628 164.469C197.249 166.689 188.978 164.894 182.586 157.197C180.461 154.643 177.806 153.133 174.586 152.418C171.228 151.67 167.861 151.042 164.501 151.129C163.748 151.156 163.133 151.786 163.146 152.54C163.17 154.036 163.193 155.518 163.202 157.002C163.214 160.105 164.837 162.397 166.942 164.436C169.062 166.485 170.215 168.923 170.092 171.925C169.937 176.205 171.576 179.834 174.141 183.161C176.802 186.608 179.626 189.885 183.299 192.313C187.018 194.775 188.721 198.396 189.754 202.628C191.229 208.682 193.063 214.645 194.731 220.658C194.806 220.913 194.949 221.171 194.93 221.413C194.914 221.959 194.806 222.518 194.751 223.069C194.212 222.92 193.563 222.931 193.174 222.615C189.06 219.32 185.961 215.219 183.654 210.516C183.115 209.424 182.603 208.329 182.152 207.198C180.755 203.681 178.207 201.704 174.547 200.693C167.182 198.638 161.686 194.197 158.7 187.029C158.118 185.626 157.809 184.09 157.558 182.587C157.065 179.738 155.996 177.236 153.902 175.182C151.144 172.466 148.251 169.928 144.917 168.115C144.256 167.757 143.413 167.994 143.04 168.644C142.231 170.071 141.423 171.497 140.655 172.932C139.29 175.498 139.598 178.161 140.354 180.8C141.187 183.707 140.917 186.412 139.302 188.999C137.232 192.315 136.699 195.984 137.133 199.823C137.683 204.68 138.729 209.388 140.844 213.853C142.296 216.912 142.413 220.105 141.499 223.43C139.667 230.042 138.058 236.728 136.294 243.356C136.086 244.141 135.463 244.812 135.034 245.536C134.556 244.873 133.901 244.276 133.652 243.541C131.881 238.312 131.286 232.944 131.935 227.454C132.025 226.672 132.099 225.879 132.188 225.097C132.626 221.6 131.434 218.783 129.002 216.22C122.346 209.197 119.709 201.105 123.227 191.657C124.395 188.535 124.313 185.495 123.351 182.341C122.346 179.06 121.169 175.883 119.441 173.035C119.043 172.374 118.177 172.164 117.518 172.575C116.468 173.227 115.431 173.877 114.355 174.439C111.371 175.973 109.917 178.565 109.169 181.654C108.43 184.703 106.727 186.945 103.921 188.427C100.868 190.037 98.702 192.57 97.2779 195.662C95.1792 200.188 93.4967 204.842 93.1314 209.894C92.8489 213.74 91.2332 216.885 88.4174 219.616C83.6729 224.209 79.1306 229.012 74.4955 233.723C74.2402 233.984 74.0219 234.32 73.7147 234.496C73.2474 234.76 72.6986 234.917 72.1961 235.12C72.0672 234.581 71.7506 234.029 71.8244 233.514C72.3339 229.583 73.7593 225.934 75.6397 222.499C76.8554 220.286 78.3421 218.206 79.8343 216.166C82.0297 213.178 82.3737 210.053 81.5327 206.43C79.5544 197.927 80.6854 189.916 87.5416 183.911C91.5248 180.42 93.6893 176.362 94.3484 171.322C94.6344 169.106 94.7978 166.868 94.9797 164.667C95.0504 163.848 94.3828 163.159 93.561 163.169C91.9862 163.204 90.5582 163.246 89.1248 163.248C86.8565 163.262 84.8914 164.016 83.2071 165.539C82.2307 166.432 81.3211 167.422 80.2744 168.193C78.4938 169.504 76.4824 170.212 74.1995 170.121C70.461 169.97 67.1043 171.118 64.0909 173.293C60.0756 176.178 56.3701 179.379 53.551 183.502C51.5042 186.509 48.6962 188.349 45.1355 189.274C38.6783 190.938 32.2948 192.843 25.8616 194.583C24.9537 194.83 23.9538 194.705 23.0036 194.746C23.4334 193.837 23.6665 192.756 24.3245 192.053C27.991 188.102 32.2931 184.991 37.2753 182.845C39.0024 182.098 40.7391 181.23 42.2385 180.091C43.9669 178.787 44.708 176.786 45.3451 174.707C48.0695 165.848 53.3798 159.425 62.9159 157.753C67.8132 156.892 71.157 154.141 74.0344 150.526C75.446 148.763 76.7073 146.874 77.9778 145.051C78.4293 144.39 78.2363 143.489 77.5549 143.081C76.0326 142.167 74.644 141.261 73.1226 140.732C71.3504 140.119 69.3483 140.043 67.4242 139.955C66.4613 139.904 65.4637 140.363 64.4852 140.58C62.0094 141.101 59.6468 140.915 57.4488 139.54C54.1426 137.457 50.5208 136.72 46.662 137.129C41.9012 137.639 37.2271 138.482 32.8771 140.592C29.3852 142.29 25.8505 142.455 22.0882 141.379C15.6728 139.561 9.18036 138.046 2.73867 136.325C1.95273 136.117 1.26999 135.51 0.545935 135.081C1.24618 134.585 1.87811 133.886 2.66334 133.617C7.7988 131.9 13.0821 131.33 18.4797 131.951C19.3161 132.045 20.1656 132.138 21.002 132.233C24.4963 132.631 27.3288 131.437 29.8948 129.007C36.9384 122.353 45.0674 119.738 54.5872 123.335C57.5183 124.448 60.7683 124.429 63.7157 123.391C65.6006 122.729 67.5484 122.229 69.376 121.442C70.6657 120.889 71.8927 120.173 73.0842 119.488C73.7488 119.116 73.9758 118.275 73.6037 117.611C72.7706 116.123 72.0063 114.652 70.9811 113.404C69.8762 112.06 68.3635 111.026 66.8859 110.053C66.0803 109.516 65.0098 109.361 64.0436 109.099C61.3662 108.375 59.2633 106.919 57.9436 104.425C55.9947 100.76 52.9625 98.3604 49.1773 96.7435C44.7161 94.8502 40.1532 93.462 35.2887 93.0447C32.0246 92.7739 29.297 91.3135 26.9452 88.9381C22.1489 84.0941 17.2259 79.3874 12.3606 74.6194C12.1306 74.3997 11.8391 74.2152 11.6948 73.9436C11.3948 73.4154 11.1842 72.8614 10.9215 72.3147C11.5112 72.1655 12.1274 71.8268 12.6701 71.9097C17.753 72.7473 22.4075 74.693 26.6712 77.5426C27.5938 78.1557 28.507 78.7967 29.3624 79.4989C32.5243 82.0656 35.9385 82.5541 39.9215 81.5168C46.682 79.7442 53.1607 80.7836 59.045 84.6788C60.3481 85.5435 61.6023 86.6274 62.5345 87.8759C65.3459 91.6326 69.1098 93.5708 73.6765 94.136C76.2563 94.45 78.8231 94.7657 81.362 95.0721C82.1984 95.1668 82.9176 94.5219 82.9048 93.6747C82.8862 92.1254 82.8523 90.7507 82.8592 89.3835C82.8947 86.2348 81.3759 83.8351 79.187 81.7684C77.0129 79.7129 75.8876 76.8069 75.9431 73.8013C76.0283 70.0621 74.7049 66.786 72.5201 63.8035C69.7071 59.9409 66.5903 56.3731 62.5847 53.6597C59.3716 51.4849 57.5643 48.4493 56.6196 44.6558C55.0082 38.1969 53.0899 31.821 51.3 25.4138C51.252 25.2613 51.1519 25.1162 51.1579 24.9695C51.2003 24.3268 51.2688 23.6805 51.3242 23.036C51.8946 23.2212 52.5805 23.2839 53.0277 23.6323C56.1008 26.039 58.5403 29.0388 60.544 32.3386C61.857 34.5019 62.9001 36.8225 63.9283 39.1319C65.4058 42.4659 67.8628 44.3623 71.3704 45.4213C80.5631 48.2015 86.8559 53.8698 88.5111 63.758C89.0499 67.0249 90.6276 69.655 93.0653 71.8858C95.5956 74.2096 98.1895 76.4184 101.121 78.0092C101.797 78.3785 102.636 78.1147 103.006 77.4393C103.617 76.3056 104.203 75.1885 104.888 74.1107C106.724 71.213 106.497 68.1808 105.625 65.0933C104.857 62.3627 105.079 59.7848 106.607 57.3415C108.774 53.8668 109.344 50.0858 108.874 46.0797C108.298 41.2262 107.213 36.524 105.1 32.0722C103.704 29.1248 103.625 26.0186 104.501 22.8049C106.339 16.1398 107.982 9.40933 109.737 2.71623C109.934 1.94572 110.324 1.22764 110.629 0.468514L111.276 0.4439C111.759 1.42393 112.392 2.34298 112.684 3.37646C114.127 8.45285 114.747 13.6185 114.069 18.9002C113.881 20.3061 113.712 21.7491 113.778 23.1592C113.89 25.9422 115.315 28.05 117.192 30.0678C123.45 36.8153 126.226 44.5696 123.04 53.6393C121.75 57.3091 121.489 60.8344 122.914 64.4543C124.032 67.3082 125.202 70.1548 126.357 72.9902C126.679 73.7674 127.613 74.0871 128.348 73.6521C130.052 72.6434 131.588 71.7643 133.055 70.7755C135.361 69.2311 136.265 66.7828 136.929 64.2355C137.668 61.3726 139.235 59.2025 141.892 57.7945C145.302 55.9888 147.597 53.1459 149.125 49.655C151.117 45.1303 152.616 40.4893 153.003 35.5005C153.356 31.0205 155.88 27.5354 159.903 24.609C164.406 21.3232 168.016 17.062 171.356 12.5866C171.947 11.7873 173.002 11.4533 173.885 10.9313C173.961 11.8492 174.241 12.8046 174.057 13.6662C172.914 18.9469 170.796 23.8076 167.528 28.1401C166.924 28.9413 166.307 29.7443 165.745 30.566C163.956 33.2317 163.65 36.0602 164.408 39.1902C166.695 48.658 164.962 57.0194 157.136 63.4913C154.675 65.5351 153.013 68.0635 152.483 71.1888C151.908 74.5592 151.548 77.9524 151.124 81.3547C151.124 81.3547 151.124 81.3547 151.126 81.3677C151.029 82.1905 151.737 82.8867 152.555 82.8514C153.757 82.8019 154.878 82.7505 156.004 82.8309C159.488 83.0576 162.108 81.4824 164.402 79.1039C166.487 76.9405 168.961 75.8368 172.041 75.9345C175.761 76.0483 179.122 74.8332 182.122 72.6606C186.169 69.7175 189.851 66.4411 192.717 62.2712C194.679 59.4221 197.398 57.7003 200.791 56.8122C207.248 55.1486 213.632 53.2434 220.065 51.5036C221.012 51.2511 222.064 51.3686 223.077 51.3057C222.601 52.2614 222.321 53.3884 221.615 54.1244C217.805 58.1882 213.372 61.411 208.158 63.4172C204.027 65.0059 201.791 67.8006 200.457 72.1001C197.903 80.285 192.72 86.3856 183.881 88.1053C179.112 89.0276 175.387 91.1429 172.522 94.9413C171.023 96.9294 169.54 98.9418 168.092 100.923C167.602 101.589 167.804 102.555 168.537 102.956C169.919 103.717 171.157 104.405 172.397 105.106C174.416 106.242 176.553 106.618 178.83 106.099C179.654 105.917 180.476 105.722 181.311 105.525C183.882 104.925 186.362 105.093 188.649 106.536C192.217 108.78 196.109 109.361 200.234 108.861C204.931 108.28 209.498 107.24 213.818 105.201C218.162 103.144 222.735 103.749 227.607 106.115C232.38 108.428 237.617 109.324 242.904 109.629C243.867 109.679 244.666 110.363 245.515 110.827C244.859 111.357 244.274 112.103 243.528 112.367C238.347 114.142 233.025 114.718 227.585 114.077C226.694 113.976 225.802 113.863 224.901 113.777C221.52 113.43 218.76 114.574 216.289 116.924C209.212 123.623 201.103 126.288 191.566 122.76C188.919 121.779 186.22 121.468 183.478 122.358C181.318 123.046 179.1 123.61 177.003 124.462C175.609 125.029 174.309 125.795 173.006 126.536L173.006 126.628Z" fill="#B23D24"/>
</g>
<defs>
<clipPath id="clip0_273_1944">
<rect width="246" height="246" fill="white"/>
</clipPath>
</defs>
</svg>
