<?xml version="1.0" encoding="UTF-8"?>
<svg id="Capa_1" xmlns="http://www.w3.org/2000/svg" viewBox="0 0 213.15 224.91">
  <defs>
    <style>
      .cls-1 {
        fill: #161e14;
      }

      .cls-2 {
        fill: #fce9c5;
      }

      .cls-3 {
        fill: #c73618;
      }

      .cls-4 {
        fill: #f7d196;
      }

      .cls-5 {
        fill: #dd5625;
      }
    </style>
  </defs>
  <g>
    <polygon class="cls-2" points="58.5 81.58 62.04 81.19 66.81 67.67 64.64 66.83 62.46 70.64 58.5 81.58"/>
    <path class="cls-4" d="M128.89,167.34c.03.18.06.24.05.26-1.57,1.9-1.37,3.93-.42,6,.98,2.14,2.34,4.02,3.91,5.75,1.89,2.08,4.01,3.92,6.36,5.47,3.76,2.48,7.72,4.63,11.8,6.53,1.07.5,2.16.93,3.21,1.48.63.33,1.23.83,1.15,1.65-.09.88-.81,1.21-1.57,1.39-1.57.37-3.15.74-4.73,1.06-6.36,1.26-12.4,3.39-18.05,6.58-3.34,1.89-6.4,4.18-9.08,6.96-1.6,1.66-2.9,3.53-4.13,5.47-.89,1.39-1.89,2.72-2.9,4.03-.54.7-1.28,1.16-2.19,1.29-.87.12-1.35-.14-1.67-.94-.98-2.44,1.04-5.61,3.68-5.73.57-.03,1.15.02,1.34-.66.12-.45-.34-1-1.07-1.26-.44-.16-.92-.3-1.38-.28-2.48.15-4.82,1.24-5.81,4.08-.19.55-.07,1.41-.97,1.41-.95,0-1.91-.06-2.53-.97-.55-.8-.71-1.68-.49-2.59.42-1.73,2.14-2.76,3.89-2.4.31.06.62.15.93.14.68-.03,1-.54.69-1.15-.19-.37-.49-.72-.82-.98-1.62-1.28-4.08-1.27-5.71,0-.24.19-.47.4-.79.67-.55-1.59-.27-2.88.84-3.97,1.02-1,2.27-1.55,3.68-1.72,1.87-.23,3.53.15,4.81,1.67.03.03.06.06.08.08,1.85,1.98,3.65,2.62,6.75.66.83-.52,1.63-1.12,2.39-1.74,4.64-3.77,9.82-6.57,15.44-8.57,1.67-.6,3.37-1.11,5.07-1.61.6-.17,1.25-.13,1.87-.26.64-.14,1.36-.23,1.88-.58,1.03-.7.87-2-.25-2.54-3.17-1.52-6.45-2.74-9.84-3.69-6.22-1.75-12.44-3.55-18.6-5.5-2.01-.64-3.85-1.79-5.76-2.73-.56-.28-1.09-.64-1.64-.95-1.55-.89-2.69-2.19-3.51-3.75-.71-1.35-.4-2.78-.17-4.17.26-1.56,1.09-2.86,1.95-4.15,2.22-3.32,5.05-6.03,8.34-8.29,2.87-1.97,5.89-3.65,9.12-4.95.51-.21.98-.65,1.34-1.08.35-.42.21-.86-.33-1.01-.55-.15-1.19-.27-1.73-.13-1.64.41-3.28.87-4.86,1.46-2.96,1.1-5.79,2.46-8.39,4.31-2.96,2.11-5.6,4.49-7.38,7.71-.06.1,0,1.2-.17,1.42-1.37-.21-2.59.24-4.02,0-.85-.15-2.05-2.04-2.9-2.23-.6-.13-1.25-.24-1.59.39-.35.64.08,1.11.56,1.52.11.09.21.21.4.42-.45.28-.83.55-1.24.74-2.01.93-4.14,1.23-6.33,1.3-2.69.09-5.35-.23-8-.64-3.22-.49-6.43-.56-9.66-.18-4.15.48-7.23,2.6-9.32,6.12-.55.92-.76,2.07-.96,3.14-.31,1.63-.45,3.28-.7,4.92-.35,2.27-.87,4.49-2.23,6.42-.85,1.21-1.89,1.53-3.14.73-.66-.42-1.26-.96-1.79-1.53-2.14-2.32-3.63-5.05-5.03-7.84-.92-1.83-1.81-3.68-2.8-5.48-2.88-5.25-6.97-9.22-12.5-11.64-1.8-.79-3.68-1.12-5.64-1.14-1.56-.02-2.84.58-3.91,1.67-.44.45-.83.95-1.29,1.39-.86.83-1.59.9-2.55.22-1.84-1.32-2.61-3.24-2.32-5.37.29-2.17,1.66-3.7,3.79-4.44,1.41-.49,2.79-.37,4.15.22.58.25,1.17.49,1.76.71.4.15.8.13,1.06-.25.27-.39.13-.77-.17-1.07-.75-.75-1.52-1.48-2.29-2.22-.22-.21-.45-.41-.81-.74.48-.04.78-.11,1.07-.08,3.06.32,5.96,1.11,8.62,2.71,8.73,5.28,15.41,12.47,20.07,21.55.36.7.76,1.38,1.17,2.06.14.23.32.46.53.63.65.52,1.35.34,1.56-.47.13-.51.16-1.12.01-1.63-.31-1.09-.26-2.17-.23-3.28.07-2.4,0-4.82.11-7.22.21-4.11,1.23-8.02,3.27-11.64,1.43-2.53,3.42-4.4,6.19-5.4,1.39-.5,2.78-.5,4.2-.31,1.86.25,3.55,1.02,5.3,1.65,1.82.65,3.24,1.68,4.51,3.2,2.63,3.14,5.94,5.54,9.5,7.54,1.01.57,2.19.88,3.34,1.12,1.01.21,2.02.02,2.77-.85-.3-.73-.85-1.08-1.44-1.27-2.97-1.01-5.26-3.01-7.45-5.13-4.37-4.24-7.82-9.11-9.46-15.06-.64-2.31-1.04-4.7-1.42-7.08-.61-3.84-.64-7.72-.08-11.56.38-2.57.92-5.13,1.61-7.64.99-3.61,2.76-6.87,4.85-9.96,1.93-2.84,3.92-5.64,6.17-8.24,2.09-2.42,4.26-4.77,6.73-6.81,1.61-1.33,3.41-2.25,5.52-2.47.46-.05.82.04,1.22.28,3.06,1.87,6.34,2.76,9.94,2.21.78-.12,1.55-.29,2.43-.45.64,1.39,1.28,2.73,1.89,4.09.6,1.33,1.15,2.68,1.75,4.01.25.57.51,1.15,1.18,1.5.37-.6.17-1.18.01-1.7-.49-1.58-1.04-3.15-1.55-4.72-.41-1.27-.78-2.55-1.15-3.79,1.06-.64,1.98-1.24,2.94-1.76.28-.15.68-.22.99-.15,2.15.5,4.29,1.03,6.43,1.61.38.1.75.4,1.01.71.62.76,1.16,1.59,1.75,2.38.35.47.74.92,1.47,1.14.35-1.51-.85-2.48-1.23-3.73.22-.02.33-.06.43-.04,3.97.57,7.67-.51,11.3-1.91,4.35-1.68,8.25-4.1,11.84-7.29,1.95,2.08,2.55,4.9,4.13,7.16-.06.05-.12.1-.18.15-.59-.37-1.17-.76-1.79-1.09-.41-.22-.86-.39-1.32-.48-.5-.09-.94.12-1.2.58-.25.45-.25.92.08,1.33.27.33.58.65.9.93,6.11,5.48,11.5,11.57,16.13,18.36,3,4.4,6.29,8.59,9.45,12.88,1.01,1.36,2.03,2.72,3.04,4.09.09.12.13.26.3.62-.68-.26-1.17-.45-1.67-.64-.76.32-.86.94-.67,1.83-.33-.26-.52-.41-.72-.56-.94-.7-1.76-.42-2.04.71-.05.19-.05.38-.09.81-.5-.94-.95-1.67-1.3-2.45-1.65-3.63-3.95-6.81-6.66-9.72-2.62-2.82-5.61-5.19-8.75-7.41-1.68-1.18-3.32-2.41-4.97-3.62-1.77-1.31-3.66-1.57-5.68-.64-.28.13-.56.3-.78.52-.8.8-.62,1.46.48,1.79.94.28,1.88.58,2.84.83,1.4.36,2.66,1.04,3.8,1.87,2.61,1.91,5.15,3.92,7.74,5.86.7.52.94,1.19,1.01,2.02.62,6.89-.46,13.52-2.94,19.96-3.23,8.38-8.69,15.07-15.59,20.64-2.39,1.93-4.95,3.64-7.5,5.36-2.47,1.67-5.27,2.67-8.07,3.61-1.79.6-3.59,1.19-5.39,1.79-.3.1-.59.22-.87.37-.39.21-.75.5-.66,1.01.09.49.51.71.95.76.5.06,1.02.05,1.53,0,.86-.07,1.72-.19,2.62-.29ZM105.98,96.39c-.25.87-.56,1.72-.72,2.61-.09.48.03,1.02.17,1.5.13.42.49.72.99.7.48-.02.63-.4.78-.78.31-.81.61-1.62.95-2.41.45-1.06.39-1.72-.23-2.13-.55-.37-1.07-.22-1.97.55.09-.3.2-.59.27-.89.22-.89-.33-1.49-1.23-1.3-.37.08-.77.25-1.04.5-1.14,1.09-1.83,2.43-2.06,4-.03.19-.06.43.03.58.18.32.37.73.66.85.19.08.61-.24.84-.47.21-.21.29-.55.46-.81.6-.91,1.07-1.92,2.08-2.49ZM113.15,139.61c.07.78.09,1.57.24,2.33.13.64.38,1.28.66,1.87.09.19.46.38.67.34.2-.04.4-.34.5-.56.09-.2.03-.46.05-.69.11-1.25.23-2.5.36-3.74.03-.27.14-.54.17-.81.05-.43-.08-.86-.5-.97-.34-.09-.81-.06-1.09.12-.3.19-.5.59-.66.94-.18.39-.27.82-.4,1.23-.01-.55.04-1.11-.05-1.64-.16-1.01-1.04-1.54-1.77-1.06-.29.19-.57.58-.64.93-.37,1.92-.69,3.86-.98,5.8-.06.38-.02.81.12,1.16.11.28.41.59.69.66.18.05.55-.26.69-.49.22-.36.31-.8.46-1.21.5-1.39,1-2.79,1.51-4.19ZM125.68,144.49c.08.3.1.64.26.91.17.28.42.63.7.7.45.12.53-.36.65-.68.37-1,.72-2,1.1-3,.79-2.07,2.13-3.66,4.1-4.72.97-.53,1.91-1.11,2.88-1.63,4.23-2.31,6.05-6.15,6.72-10.68.09-.57-.02-1.18-.09-1.76-.03-.26-.17-.53-.33-.75-.32-.43-.76-.39-1.04.07-.1.17-.19.36-.22.55-.22,1.48-1.03,2.71-1.69,4-1.23,2.39-2.98,4.24-5.33,5.53-1.24.68-2.51,1.35-3.65,2.17-3.18,2.27-4.83,5.25-4.05,9.28ZM140.59,113.22c.05-.19.08-.38.15-.57.73-2.14.59-4.28-.11-6.39-.18-.54-.52-1.07-.91-1.48-.4-.41-.94-.17-1.06.39-.04.19-.04.4,0,.59.43,2.73-.18,5.25-1.45,7.65-.27.52-.51,1.08-.65,1.65-.28,1.19.49,2.03,1.71,1.87.54-.07,1.06-.24,1.62-.37.19.46.34.9.55,1.31.52.98,1.35,1.38,2.34,1.19.98-.19,2.31-1.75,2.33-2.74.01-.49-.32-.76-.76-.58-.28.11-.52.34-.78.52-.27.18-.53.36-.94.64-.05-.6-.1-.98-.1-1.37-.02-1.63-.32-2-1.92-2.29ZM141.41,95.58c.52,1.97,1.68,3.61,3.47,4.78.41.27.94.42,1.43.5.52.08,1.04-.09,1.29-.63.24-.51-.06-.9-.4-1.25-.38-.39-.81-.76-1.13-1.2-1.24-1.74-1.67-3.63-.87-5.69.19-.51.22-1.01-.2-1.43-.44-.44-.97-.47-1.54-.32-.83.22-1.32.83-1.68,1.56-.56,1.14-.57,2.36-.38,3.68ZM98.06,100.01c.23.25.44.65.74.76.45.16.65-.3.84-.65.06-.1.1-.21.15-.32.8-2.01,2.13-3.65,3.71-5.1.23-.21.47-.42.69-.64.29-.29.5-.62.29-1.05-.2-.42-.59-.47-1-.46-.87.03-1.6.42-2.2.99-1.46,1.37-2.52,3-3.02,4.96-.11.45-.12.93-.2,1.5ZM90.3,150.48c.55,1.91,1.3,3.52,2.58,4.79.45.44,1.11.73,1.72.92.29.09.85-.13,1.01-.38.14-.22,0-.81-.23-1.02-1.27-1.24-1.74-2.87-2.33-4.45-.16-.44-.29-.91-.54-1.3-.52-.81-1.6-.75-1.99.13-.2.44-.17.98-.22,1.32ZM111.45,170.32c.15.49.25,1,.45,1.46.27.62.66,1.17,1.33,1.42.84.31,1.52-.2,1.25-1.03-.45-1.42-.23-2.79.03-4.18.06-.31.12-.62.11-.93-.01-.95-.75-1.5-1.67-1.25-.72.19-1.09.73-1.33,1.38-.4,1.03-.32,2.08-.17,3.14ZM153.12,134.79c-.07-.29-.1-.48-.16-.67-.26-.82-.81-1.27-1.51-1.24-.69.02-1.18.54-1.34,1.41-.03.15-.02.31-.04.47-.23,1.23-.46,2.46-.69,3.68-.05.27-.14.54-.14.81,0,.8.47,1.17,1.22.94.29-.09.6-.24.8-.46,1.31-1.42,1.96-3.09,1.87-4.95ZM149.46,135.95c-.17-1.32-.75-1.96-1.5-1.96-.65,0-1.08.45-1.26,1.46-.23,1.31-.85,2.45-1.51,3.57-.26.44-.53.9-.64,1.38-.17.83.44,1.28,1.22.94.18-.08.35-.19.5-.31,1.1-.97,2.09-2.06,2.7-3.4.29-.63.39-1.33.49-1.68ZM85.19,129.65c.02.12.03.23.07.35.13.47.31.98.88.96.54-.01.58-.55.7-.96.48-1.7.97-3.39,1.43-5.1.22-.8,0-1.35-.58-1.61-.6-.28-1.23-.01-1.66.71-.08.13-.15.28-.2.42-.56,1.7-.82,3.43-.63,5.22ZM81.65,129.36c.17.63.36,1.09.92,1.12.56.03.65-.47.79-.88.02-.08.04-.15.06-.23.5-1.58,1-3.15,1.49-4.73.09-.3.21-.6.23-.91.05-.86-.67-1.35-1.41-.88-.4.26-.8.7-.95,1.14-.4,1.14-.71,2.33-.98,3.51-.14.64-.12,1.33-.16,1.85ZM117.02,141.2s-.08.04-.12.06c.39.89.74,1.8,1.19,2.66.23.44.7.67,1.22.43.49-.23.4-.69.37-1.13-.09-1.37-.14-2.74-.2-4.11-.01-.23.02-.47,0-.71-.08-.72-.37-1.08-.94-1.19-.52-.1-1.07.15-1.32.76-.21.53-.3,1.13-.34,1.71-.03.5.09,1.02.14,1.52ZM115.45,169.98c.19.71.27,1.23.49,1.68.22.45.52.9.9,1.2.57.45,1.18.12,1.24-.62.01-.19-.06-.39-.06-.59-.01-1.1-.03-2.19-.02-3.29,0-.35.1-.7.12-1.06.03-.55-.13-1.04-.71-1.23-.55-.18-1.05,0-1.35.46-.25.38-.49.84-.55,1.28-.1.77-.05,1.56-.06,2.15ZM72.61,154.64c.82-.18,1.12-.81.78-1.49-.36-.72-1-.99-1.75-1-1.38,0-2.64.45-3.76,1.23-.47.33-.85.81-1.2,1.28-.27.37-.32.88.04,1.2.37.34.73,0,1.05-.24,1.24-.89,2.63-1.21,4.14-1.05.27.03.55.04.7.05ZM159.21,112.6c-.25-1.24-.8-1.78-1.51-1.72-.72.06-1.15.67-1.04,1.7.13,1.28-.02,2.51-.43,3.72,0,0,0,0,0,0-.18.56.35,1.08.93,1,.1-.01.21-.03.31-.05.13-.03.26-.18.36-.3,1.09-1.36,1.44-2.94,1.39-4.35ZM74.57,156.29c-.13-.84-.85-1.33-1.7-1.21-1.64.22-3.08.91-4.28,2.07-.17.16-.29.37-.39.58-.21.42-.27.91.13,1.18.21.14.7.04.96-.11,1.17-.69,2.43-1.1,3.74-1.39.31-.07.66-.11.89-.29.3-.25.5-.63.65-.82ZM91.89,122.9c-.2-.18-.45-.55-.8-.69-.55-.21-.97.14-1.29.58-.89,1.24-.64,4.26.46,5.34.35.34.76.61,1.27.42.56-.22.56-.75.45-1.21-.26-1.13-.24-2.26-.09-3.4.04-.27,0-.55,0-1.05ZM117.64,120.62c.37-.4.79-.71,1.01-1.13.77-1.43.99-2.97.62-4.56-.11-.47-.39-.94-.71-1.32-.36-.42-.91-.46-1.4-.19-.54.29-.65.81-.41,1.32.65,1.39.57,2.81.36,4.27-.07.49-.11,1.03.53,1.6ZM97.42,153.32c.9-.06,1.17-.5.83-1.12-.13-.24-.31-.46-.51-.65-.82-.81-1.49-1.72-1.95-2.79-.08-.18-.18-.35-.28-.52-.29-.43-.69-.68-1.2-.54-.56.15-.87.59-.82,1.15.04.5.13,1.04.37,1.46.66,1.19,1.6,2.14,2.84,2.75.28.14.58.2.72.25ZM153.94,96.45c-.34-1.08-.77-2.02-1.5-2.76-.42-.43-1.01-.76-1.58-.96-.57-.21-1.17.13-1.39.62-.24.53-.11,1,.28,1.41.14.14.32.24.45.39.64.74,1.27,1.49,1.89,2.25.15.18.23.42.38.6.35.42.82.45,1.07-.02.24-.45.28-1.01.41-1.53ZM162.23,113.37c-.15-.25-.3-.62-.56-.91-.34-.38-.81-.48-1.3-.27-.57.24-.72.74-.65,1.27.17,1.17-.06,2.28-.39,3.38-.07.22-.12.46-.12.7-.02.74.37,1.01,1.06.73.21-.09.44-.22.58-.39,1.07-1.27,1.53-2.73,1.37-4.51ZM122.71,114.77c-.18-.4-.41-.98-.72-1.52-.3-.53-.76-.88-1.39-.99-.57-.1-1.02.07-1.32.54-.32.51-.16.97.26,1.37.72.67,1.11,1.5,1.24,2.47.03.19.07.39.14.57.3.75.77.83,1.32.22.64-.72.59-1.58.47-2.65ZM155.81,93.44c-.6-1.4-1.43-2.61-2.96-3.13-.7-.24-1.35.04-1.63.59-.28.54-.09,1.18.51,1.65.89.7,1.79,1.39,2.69,2.08.59.45,1.16.27,1.34-.45.05-.22.04-.47.05-.74Z"/>
    <path class="cls-4" d="M122.91,77.97c-1.22-1.44-2.41-2.85-3.62-4.28.61-1.02,1.18-1.99,1.83-3.09,1.58,2.27,3.83,2.73,6.31,2.54.53-.04,1.13-.09,1.3-.96-.47-.15-.93-.33-1.41-.43-1.89-.4-3.33-1.4-4.24-3.11-.25-.47-.38-1-.63-1.7.48.13.74.17.97.27,3.95,1.63,7.75,3.54,11.36,5.84,3.07,1.95,6.2,3.79,9.06,6.04.66.52.69.48,1.56.5-.03-.23,0-.48-.11-.67-.16-.31-.36-.63-.61-.87-3.31-3.21-6.57-6.49-10.71-8.7-3.38-1.81-6.77-3.57-10.36-4.93-.18-.07-.35-.16-.58-.27.63-1.61,2.19-2.34,3.24-3.53-1.24-.79-3.62.36-5.49,2.73-.94-.3-1.92-.59-2.89-.92-2.51-.86-5.07-1.48-7.71-1.78-.54-.06-1.1-.08-1.64,0-.43.05-.86.26-.88.8-.02.49.38.67.77.78,1.63.47,3.27.89,4.89,1.39,2.22.69,4.42,1.43,6.53,2.12.37,1.2-.02,1.82-1.04,2.22-.87.34-1.68.8-2.5,1.25-.72.4-1.24.26-1.85-.3-1.46-1.33-2.96-2.61-4.54-3.79-.9-.68-1.96-1.17-2.99-1.66-.4-.19-.91-.21-1.37-.2-.46,0-.91.28-.94.75-.02.38.13.88.38,1.15.69.73,4.08-.73,4.46.34.51,1.45.55,1.52,2.09,1.59.78.04.05,2.9.51,3.35-.18.15.08,1.68-.06,1.66-1.15-.13-2.87,0-3.88.57s-1.23-1.4-1.57-1.96c-.6-.97-1.16-1.98-1.87-2.87-.93-1.17-1.99-2.24-3-3.34-.16-.17-.36-.31-.56-.44-.42-.3-.89-.38-1.32-.06-.47.36-.36.88-.1,1.28.45.69.96,1.35,1.47,2,.96,1.24,1.94,2.47,3.05,3.88-.51.03-.77.08-1.02.05-2.39-.33-4.73-.8-6.96-1.79-3.43-1.54-5.54-4.06-6.03-7.86-.04-.35-.1-.7-.17-1.05-.12-.51-.26-1.06-.91-1.08-.56-.02-.87.37-1.02.84-.18.56-.38,1.15-.36,1.72.04,1.14.18,2.27.35,3.4.12.83.08,1.03-.63,1.44-2.3,1.32-5.47-.08-6.09-2.79.32-.16.71-.28.99-.52.27-.24.57-.59.6-.92.06-.5-.4-.74-.84-.84-.37-.09-.77-.11-1.23-.17.01-.57.03-1.1.04-1.74.56.13.96.27,1.38.3.25.02.64-.07.72-.24.12-.23.13-.68-.02-.85-.4-.47-.92-.84-1.52-1.36.13-.3.32-.7.55-1.21.5.37.87.74,1.31.93.39.16.86.11,1.32.01.07.03.16.05.2.1.35.44.71.92,1.37.67.61-.23.65-.83.72-1.39.16-1.2.17-1.2.85-2.01.12.29.25.5.29.73.1.62.1,1.26.26,1.86.19.7.78,1.11,1.38,1.12.6,0,1.1-.41,1.35-1.14.09-.26.11-.54.2-.8.19-.53.74-.91,1.26-.9.64,0,.93.41,1,.97.07.58.09,1.17.1,1.76,0,.54,0,1.03.66,1.22.72.21,1.42.09,1.64-.54.57-1.62,1.33-3.24,1.05-5.04-.29-1.85-2.06-3.39-3.97-3.5-.55-.03-1.1.03-1.65.02-.66,0-1.34.01-1.86-.4,1.58-1.17,3.16-2.3,4.69-3.5.97-.76,1.87-1.59,2.74-2.47,1.61-1.63,3.29-3.21,4.7-5,1.33-1.69,2.37-3.62,3.5-5.47.26-.42.39-.96-.05-1.44-.97-.04-1.09,1.07-1.81,1.36-.72-5.3-4.86-6.85-8.92-4.24.1-.35.13-.59.24-.81,1.6-3.22,4.3-4.71,7.8-4.91,2.12-.12,3.61.91,4.65,2.68.24.4.44.84.74,1.19.46.52,1.07.41,1.3-.25.13-.35.13-.78.1-1.16-.14-1.39-.85-2.52-1.72-3.57,1.68-.69,9.35.64,13.3,2.3-.2.2-.37.37-.55.54-.77.74-1.58,1.43-2.29,2.21-.94,1.04-1.07,2.23-.33,3.65.28-.26.55-.45.74-.7,2.02-2.52,4.71-3.9,7.82-4.48,2.22-.41,3.91.73,5.35,2.22,1.68,1.73,2.78,3.82,3.18,6.23.14.82.21,1.65.32,2.47.08.58.14,1.18.69,1.62.62-.26.81-.81.89-1.4.16-1.22.61-2.31,1.3-3.31.27-.39.7-1.04.93-1.44,2.57-4.41,6.59-6.87,11.28-8.47,3.17-1.08,6.43-1.06,9.71-.96.12,0,.23.04.34.07.03,0,.05.05.1.11-.57.78-1.16,1.56-1.73,2.36-.95,1.32-1.39,2.8-1.44,4.43-.06,1.89-.19,3.78-.38,5.66-.34,3.41-1.98,6.19-4.34,8.6-.99,1.02-1.9,2.11-2.85,3.17-1.1,1.22-1.08,2.74-1.18,4.23-.02.37.12.7.6.75.5-.77.99-1.55,1.49-2.32.16.09.27.11.29.16.77,2.89,2.49,5.36,3.59,8.1,2.04,5.07,1.72,9.89-1.25,14.46-.89,1.38-1.95,2.71-3.17,3.8-4.72,4.22-10.16,7.02-16.49,7.93-1.94.28-3.86-.02-5.77-.26-.26-.03-.57-.27-.73-.51-.71-1.04-1.35-2.13-2.06-3.17-.29-.42-.27-.77-.04-1.2.2-.38.41-.8.42-1.21.01-.34-.15-.8-.41-1-.2-.15-.68-.05-.98.07-.31.12-.57.4-.93.68ZM128.31,46.41c.23-.22.5-.36.61-.59.71-1.54,1.53-3.05,2.02-4.66.61-2,.45-4.06-.31-6.04-1.04-2.72-3.25-4.4-5.9-4.32-1.93.06-3.75.58-5.25,1.88-2.5,2.17-4.35,4.82-5.34,7.97-.94,3.01-1.7,6.08-2.45,9.14-.26,1.06-.32,2.18-.37,3.28-.13,3.05,1.53,5.11,3.87,6.75.35.25.76.44,1.17.56.24.07.53-.08,1.04-.18-1.12-1.5-2.53-2.54-2.75-4.29.28.29.44.66.72.92.59.56,1.16,1.27,1.88,1.55,1.16.46,2.42.68,3.65.89.52.09,1.11-.07,1.62-.25.27-.1.45-.48.66-.74-.26-.19-.5-.46-.8-.57-.89-.3-1.82-.5-2.7-.82-.42-.15-.78-.48-1.16-.73.03-.07.06-.15.09-.22,1.25.32,2.52.52,3.72.04,1.23-.5,2.47-1.07,3.56-1.81.72-.49,1.2-1.33,1.76-2.04.1-.13.03-.4.05-.75-.34.21-.55.3-.72.45-.99.88-2.15,1.43-3.39,1.88-3.42,1.23-7.12-.62-8.02-4.12-.26-1.01-.25-2.09-.37-3.19.66-.08.87.05.93.66.07.77.22,1.59.59,2.25.99,1.79,2.6,2.86,4.59,3.24,1.88.36,3.52-.21,4.78-1.69.32-.38.53-.85.77-1.24,1.17.26,2.28.55,3.4.73.51.09,1.21.24,1.44-.45.22-.68-.42-.91-.89-1.21-1.89-1.2-4.02-1.82-6.13-2.46-3.05-.93-6.13-1.76-9.25-2.64.81-3.66,2.6-6.75,5.82-8.91.61-.41,1.33-.71,2.04-.92,1.93-.56,3.6.08,4.54,1.81.48.88.84,1.9.96,2.89.24,2.01.19,4.03-.83,5.88-.08.14-.13.29-.18.44-.23.61-.19,1.15.56,1.62ZM144.89,36.76l-.21-.16c.56-2.16,1.28-4.27,2.79-5.99,1.24-1.42,2.88-2.3,4.55-3.12.52-.25,1.1-.44,1.28-1.1-.71-.4-.72-.44-1.31-.3-.84.2-1.68.43-2.49.72-3.87,1.39-6.61,4.03-8.36,7.73-.79,1.67-1.16,3.45-1.05,5.28.1,1.82,1.01,3.3,3.47,2.62.56-.15,1.11-.35,1.71-.55.08.21.15.38.22.56.48,1.28,1.3,1.81,2.57,1.41,2.23-.69,4-2,5-4.19.4-.88.32-1.73-.03-2.75-1.18.98-2.27,1.88-3.39,2.82-.38-.1-.7-.33-.64-.88.06-.54-.09-.99-.53-1.36-.18-.15-.27-.44-.33-.68-.26-1.05-.85-1.36-1.82-.89-.49.23-.94.55-1.41.83ZM114.13,32.89c-.08-.12-.15-.24-.23-.36-.47.14-.97.22-1.4.43-.95.48-1.88,1-2.77,1.57-.72.46-1.49.93-2.04,1.56-3.37,3.91-6.5,8.02-9.34,12.33-.59.89-.7,1.87-.73,2.95.6.03.91-.28,1.21-.67,2.58-3.33,5.13-6.68,7.77-9.97,1.51-1.88,3.47-3.39,4.75-5.47.4-.65,1.04-1.09,1.73-1.4.45-.2.72-.63,1.05-.98ZM144.84,71.43c.83.13,1.27-.34,1.66-.83,1.4-1.79,2.16-3.84,2.11-6.12-.01-.72-.3-1.46-.59-2.13-.29-.65-.89-.99-1.63-.94-.93.06-1.43.95-.88,1.66.66.86.81,1.81.6,2.78-.28,1.3-.69,2.57-1.08,3.84-.17.55-.53,1.07-.18,1.73ZM114.77,24.69c-.14.25-.31.44-.35.66-.24,1.12-.85,2.02-1.56,2.87-.28.33-.57.67-.77,1.04h0c-.23.45.07.98.57,1,.09,0,.19,0,.28,0,.11,0,.22-.08.32-.15,1.46-1,2.24-2.41,2.34-4.16.03-.5-.07-1.04-.82-1.28ZM112.63,26.79c.07-.63.01-1.28-.21-1.87-.05-.13-.1-.25-.16-.36,0,0,0,0,0,0-.21-.36-.76-.36-1-.01-.05.07-.08.14-.1.22-.17.84-.23,1.71-.37,2.56-.08.51-.05.95.5,1.17.44.17.96-.09,1.15-.73.09-.32.15-.65.18-.96Z"/>
    <path class="cls-4" d="M146.2,159.56c1.2-.91,2.19-1.68,3.19-2.42.15-.11.36-.17.55-.17,1.85.03,3.69.09,5.5.58,2.05.56,4.12,1.07,6.27,1.11,4.18.08,8.3-.31,12.16-2.01,1.71-.75,3.32-1.81,4.84-2.91,1.52-1.11,2.87-2.46,4.3-3.7,1.81-1.57,3.25-3.43,4.15-5.54.66.17,1.28.53,1.8.41.65-.15,1.31-.58,1.78-1.07,1.25-1.27,2.06-2.79,2.17-4.61.06-.93.12-1.86.2-3.01.34.43.51.68.72.9,1.01,1.09,2.41.91,2.91-.49.36-.98.53-2.07.56-3.12.05-2.04-.41-3.98-1.37-5.81-.54-1.03-1.14-1.99-2.12-2.65-.9-.61-1.32-1.51-1.32-2.52,0-2.08-.69-3.94-1.5-5.8-.19-.43-.35-.86-.62-1.55.61.27,1,.41,1.36.61,2.57,1.41,4.94,3.07,7.05,5.15,3.32,3.28,6.18,6.88,8.07,11.15,1.97,4.46,2.71,9.13,1.87,13.99-.26,1.51-.5,3.04-.91,4.52-.42,1.51-.93,3.02-1.6,4.44-3.15,6.76-7.94,12.08-14.25,16.06-4.81,3.04-9.91,4.02-15.5,2.58-6.08-1.57-11.6-4.28-16.78-7.77-1.44-.97-2.89-1.93-4.37-2.83-2.58-1.58-5.33-2.73-8.31-3.33-.19-.04-.37-.1-.81-.21ZM189.29,162.76c2.03-1.01,3.75-2.21,4.58-4.33.13-.34.09-.78.04-1.16-.08-.59-.4-1.03-1.03-1.15-.52-.1-.94.17-1.21.9-.5,1.37-1.4,2.45-2.4,3.47-.27.28-.6.55-.77.89-.15.32-.24.78-.11,1.07.1.21.6.22.89.31ZM203.2,141.63c-.07-.18-.14-.45-.25-.7-.39-.88-1.1-1.33-1.72-1.1-.57.21-.77.72-.59,1.73.26,1.46.22,2.9-.08,4.35-.05.27-.12.55-.12.82.01.64.47.98,1.03.67.42-.23.81-.64,1.03-1.07.74-1.45.87-3.01.69-4.7ZM171.07,164.62c.34.04.68.01,1.01-.09,1.49-.46,2.64-1.07,3.63-1.97.35-.32.78-.71.46-1.2-.34-.53-.83-.13-1.27,0-1.17.33-2.33.68-3.52.91-.6.11-1.25-.08-1.88-.03-.31.02-.78.2-.87.43-.12.3-.05.79.13,1.08.19.3.58.58.93.66.48.12.98.18,1.38.23ZM200.3,141.98c-.21-1.08-.66-1.58-1.28-1.56-.68.02-1.02.44-1.02,1.43,0,1.59-.31,3.12-.78,4.63-.11.37-.23.8.23,1.04.42.22.79,0,1.04-.31,1.29-1.58,1.95-3.38,1.81-5.24ZM172.7,167.79c.95-.26,2.02-.7,2.67-1.72.2-.31.24-.86.1-1.2-.19-.49-.72-.34-1.15-.24-1.19.26-2.37.52-3.56.78-.44.1-.83.26-.97.75-.15.53.09.94.48,1.24.67.51,1.44.6,2.43.4ZM196.52,159.17c-.16-.9-.64-1.41-1.22-1.42-.59-.01-.8.29-1.09,1.15-.22.66-.57,1.27-.89,1.89-.14.27-.43.49-.53.77-.12.34-.26.82-.11,1.08.24.43.78.34,1.17.16,1.25-.6,2.21-1.49,2.59-2.86.08-.29.06-.62.08-.77ZM203.87,142.26c.04.41.01.63.1.79.16.28.36.68.61.74.27.07.69-.13.91-.35.26-.26.43-.66.52-1.03.22-.96,0-1.88-.5-2.71-.45-.74-1.22-1.06-1.77-.78-.55.28-.69.82-.41,1.76.18.6.4,1.18.54,1.58Z"/>
    <path class="cls-5" d="M45.02,91.77c-.44-.87-.85-1.7-1.35-2.69,8.55-1.92,16.65-4.82,24.52-8.69.33.77.63,1.44.99,2.27-.51.35-1.01.7-1.53,1.03-1.03.66-2.08,1.28-3.09,1.96-.35.24-.7.54-.94.88-.15.22-.25.67-.13.86.16.24.57.47.86.45.54-.03,1.08-.21,1.6-.38.53-.18.91-.12,1.4.23,2.41,1.73,4.21,4.01,5.41,6.63,1.71,3.71,1.85,7.55-.68,11.02-1.82,2.5-4.33,4.25-7.21,5.39-1.91.75-3.86,1.41-5.95,1.43-1.16.01-2.27-.13-3.41-.79.25-.18.4-.32.58-.41,3.78-1.76,7.59-3.49,11.35-5.3.98-.47,1.88-1.16,2.74-1.84.48-.38.91-.9,1.2-1.44.8-1.51-.15-2.94-1.85-2.84-.63.04-1.24.2-1.87.31-.3.05-.6.11-1.11.21.61-.69,1.11-1.22,1.56-1.79.52-.65.96-1.35,1.02-2.22.11-1.51-.88-2.41-2.35-2.09-.57.13-1.13.34-1.69.52-.51.16-1.03.33-1.76.57.36-.5.59-.8.8-1.12.24-.36.51-.71.69-1.1.69-1.54-.24-2.93-1.9-2.65-1.58.26-3.17.68-4.66,1.27-2.71,1.07-5.35,2.31-8.02,3.48-.21.09-.44.15-.64.22-.69-1.07-.69-1.34.14-2.04.63-.53,1.33-.99,1.99-1.48.22-.16.46-.3.68-.47.35-.26.51-.61.34-1.04-.17-.44-.55-.57-.97-.49-1.04.2-2.1.37-3.11.69-1.05.33-2.04.83-3.06,1.25-.17.07-.36.13-.59.21Z"/>
    <path class="cls-2" d="M185.04,130.53c-.54.47-.35.93-.25,1.39.25,1.16.53,2.31.69,3.48.28,2.09-.27,3.99-1.6,5.63-.53.65-1.11,1.25-1.67,1.88-.08-.05-.15-.1-.23-.15.17-.55.33-1.1.51-1.64.84-2.49.85-4.96-.25-7.38-.16-.36-.34-.72-.57-1.03-.76-1.03-1.8-1.01-2.51.05-.35.52-.64,1.09-.97,1.63-.64,1.03-1.57,1.72-2.76,2.14.27-.45.58-.88.82-1.34.63-1.27,1.23-2.55,1.84-3.83.02-.04.01-.09.03-.11,1.07-1.01,1.11-2.44,1.49-3.9.37.38.62.66.88.93.28.28.53.6.84.82.87.64,1.88.19,1.99-.88.04-.42-.01-.85-.02-1.35.4.07.74.13,1.08.18.86.12,1.16-.07,1.35-.89.05-.23.07-.47.1-.7.03-.19.05-.38.07-.57,4.39-.07,8.51,3.67,8.44,7.79-.34-.41-.62-.71-.86-1.04-.82-1.15-1.91-1.98-3.12-2.67-.3-.17-.69-.37-.98-.3-.38.08-.76.36-1.01.67-.11.14.02.61.18.82,2.14,2.89,2.25,6.13,1.69,9.49-.05.33-.33.62-.5.93-.1-.02-.19-.03-.29-.05-.16-.86-.33-1.71-.48-2.57-.41-2.38-1.43-4.49-2.86-6.42-.19-.25-.42-.47-.65-.69-.11-.11-.25-.18-.42-.31Z"/>
    <path class="cls-2" d="M66.69,104.75c-4.17,2.01-8.87,3.42-13.07,5.37-.4.19-1.27-.89-1.87-1,.23-.28.46-.57.68-.85.86-1.1.43-2.28-.94-2.58-.6-.13-1.2-.25-1.94-.41.19-.51.3-.88.45-1.22.5-1.18.21-1.92-.99-2.44-.32-.14-.67-.23-.99-.38-.5-.22-.66-.64-.35-1.05.4-.52.84-1.09,1.4-1.38,1.57-.82,3.2-1.52,4.81-2.25,2.23-1,4.46-1.99,6.7-2.97.21-.09,1.73-1.49,2.21-1.67-.31.44.37,2.69.16,2.86-1.04.83-4.15,1.1-5.28,1.8-1.4.87-2.91,1.56-4.37,2.34-.48.26-.96.54-1.42.84-.35.23-.59.55-.46,1,.13.48.52.7.98.72.39.02.81,0,1.17-.13,1.6-.55.97-1.88,2.56-2.46,2.11-.77,5.13-2.2,7.24-2.96.09-.03,4-.15,4.38-.15-.55.45-1.8,3.97-2.21,4.24-2.08,1.35-5.78,1.05-7.86,2.4-.36.23-.72.49-1.02.8-.35.35-.54.79-.35,1.29.19.49,1.29-1.09,1.77-1.1.74,0,1.13-.92,1.84-1.13,1.63-.46,5.76-.87,7.37-1.39.44-.14,1.45,1.66,1.88,1.52.03.09-.91,3.84-2.49,2.36Z"/>
    <path class="cls-4" d="M91.84,41.14c.16-3.75,1.29-7,4.12-9.5.92-.81,2.06-1.13,3.19-.59,1.23.59,2.01,1.64,2.03,3.09.03,1.63-.32,3.11-1.63,4.26-.92.8-1.73,1.72-2.63,2.55-.27.25-1.18,1.39-1.52,1.38-1.33-.04-2.24-.93-3.56-1.18Z"/>
    <path class="cls-4" d="M101.35,77.99c2.04,3.32,5.17,3.32,8.61,2.74.83,1.55,1.67,3.12,2.52,4.72-4.63,1.66-8.62.3-11.42-3.01-.44-.52-.65-1.25-.9-1.91-.08-.22-.04-.55.08-.76.31-.58.7-1.12,1.12-1.77Z"/>
    <path class="cls-4" d="M121.38,79.89c-1.96,2.11-4.14,3.59-6.62,4.84-.85-1.67-1.67-3.26-2.55-4.98,2.17-.87,3.87-2.3,5.51-3.99,1.24,1.4,2.4,2.71,3.66,4.13Z"/>
    <path class="cls-4" d="M16.54,152.89c-3.07,2.04-4.51,4.79-4.35,8.34-1.03.42-1.76,0-2.39-.63-1.78-1.79-1.69-5.08.16-6.82,1-.95,2.19-1.5,3.53-1.77,1.12-.22,2.08.09,3.05.89Z"/>
    <path class="cls-2" d="M113.82,7.02c-1.45,1.24-1.17,2.71-.66,4.27-.92.25-1.74.47-2.78.75.17-.64.25-1.09.41-1.52.39-1.04.64-2.09.68-3.21.07-1.82.95-3.28,2.27-4.64.1.19.21.31.22.43.15,1.96,1.15,3.48,2.47,4.84.44.45.91.87,1.34,1.33.29.3.55.64.98,1.15-1.25.16-2.27.29-3.28.42-.97-1.13-1.28-2.45-1.67-3.82Z"/>
    <path class="cls-4" d="M10.68,149.79c-.9.64-1.72,1.1-2.39,1.73-.65.61-1.23,1.33-1.7,2.1-.49.8-.8,1.7-1.2,2.56-1.36.03-2.27-.86-2.33-2.45-.05-1.22.24-2.34,1.23-3.18,1.52-1.31,3.18-2.03,5.2-1.33.36.12.69.33,1.18.58Z"/>
    <path class="cls-2" d="M92.64,71.54c.75.36,1.34.58,1.86.91.22.14.39.49.41.75.04.46-.05.94-.08,1.41-.05.55.2.92.71,1.08.46.14.85-.13,1.05-.71.15-.44.26-.9.43-1.51.74.21,1.44.4,2.11.59.08,1.12-.16,2.02-.91,3.34-1.49-.2-2.99-.45-4.43-1.02-.61-.24-.96-.62-.98-1.31-.03-1.13-.11-2.26-.17-3.54Z"/>
    <path class="cls-5" d="M44.57,86.08c3.89-2.16,8.07-3.61,12.38-5,.08.9-.28,1.39-1.03,1.65-2.12.73-4.23,1.49-6.37,2.18-1.61.52-3.25.93-4.88,1.38-.03-.07-.07-.14-.1-.21Z"/>
    <path class="cls-4" d="M76.61,103.96c.21-1.98.41-3.87.61-5.84,1.37-.5,2.86-1.05,4.44-1.63-1.61,2.5-3.15,4.91-4.7,7.31-.05.08-.2.09-.35.16Z"/>
    <path class="cls-4" d="M90.66,43.49c.32.61.65,1.21,1.02,1.92-1.1,1.06-2.55,1.75-3.94,2.65.11-1.31,1.23-3.03,2.92-4.56Z"/>
    <path class="cls-4" d="M121.84,83.29c.46-.44.79-.76,1.19-1.16.46.58.87,1.08,1.28,1.61-.78-.14-1.52-.28-2.48-.45Z"/>
    <path class="cls-2" d="M160.16,22c-2.38,0-4.76-.36-7.14-.28-2.42.09-4.71.71-6.87,1.82-3.75,1.93-7.55,4.97-8.79,9.22-.67,2.29-.61,4.82.49,6.97.19,1.26.42,2.51.69,3.76.19.85,1.26,1.32,1.93.68.35-.33.7-.66,1.06-.99.02.41.03.83.05,1.24.03.66.05,1.32.08,1.98.02.59,0,1.2.25,1.75.25.52.75.9,1.32.95.73.06,1.26-.45,1.76-.89.4-.35.8-.7,1.2-1.05-.06.34-.15.68-.29,1.01-.41,1.03.73,1.84,1.63,1.47.94-.38,1.65-1.1,2.33-1.84.67-.73,1.33-1.47,1.98-2.21,1.22-1.41,2.39-2.88,3.34-4.5,1.01-1.73,1.72-3.56,2.14-5.53.41-1.92.58-3.88,1.02-5.79.5-2.15,1.39-4.13,2.69-5.9.5-.68,0-1.86-.88-1.86ZM144.01,47.02c.09.11-.01.14,0,0h0Z"/>
    <path class="cls-2" d="M114.68,47.65c.12,1.66.35,3.31,1.4,4.67s2.63,1.75,4.19,1.9c1.47.14,3.06-.02,4.38-.73.68-.37,1.23-.86,1.73-1.44.43-.5.77-1.02,1.32-1.4l-1.97-1.35c-.95,2.28-3.96,2.77-5.61.96-1.07-1.17-2.94.44-1.86,1.62,1.35,1.48,3.4,2.24,5.39,1.89s3.64-1.79,4.41-3.63c.21-.5-.03-1.14-.47-1.43-.49-.33-1.05-.23-1.51.09-.95.64-1.4,1.8-2.37,2.41-.85.53-1.91.65-2.9.59s-2.15-.19-2.82-1.02c-.78-.96-.8-2.39-.89-3.57-.05-.67-.84-1.1-1.44-.98-.72.14-1.03.77-.98,1.44h0Z"/>
    <g>
      <path class="cls-1" d="M185.23,121.63c1.29.18,2.53.35,3.91.55-.21-.8-.31-1.55-.61-2.21-.77-1.68-1.62-3.33-2.45-4.98-.19-.39-.45-.75-.6-1.15-.53-1.44.31-2.65,1.83-2.43,1.63.23,3.3.52,4.82,1.12,3.21,1.27,6.16,3.01,8.76,5.32,3.3,2.93,6.17,6.21,8.42,10.02,3.32,5.62,4.41,11.69,3.57,18.12-.25,1.87-.66,3.73-1.09,5.57-1.08,4.57-3.3,8.64-6.06,12.36-3.44,4.62-7.59,8.53-12.62,11.46-5.75,3.35-11.8,4.29-18.22,2.46-6.59-1.87-12.7-4.76-18.26-8.79-2.59-1.88-5.21-3.72-8.17-5-.54-.24-1.1-.44-1.64-.68-2.58-1.11-5.05-.8-7.51.44-1.47.74-3.02,1.35-4.57,1.94-1.43.54-2.37,1.54-2.98,2.88-.41.89-.46,1.81-.07,2.75.67,1.62,1.62,3.07,2.73,4.42,2.48,3.01,5.3,5.63,8.7,7.58,2.88,1.65,5.72,3.37,8.62,4.96,1.17.64,2.46,1.04,3.72,1.5.9.33,1.76.68,2.46,1.37,2.26,2.24,2.23,5.52-.12,7.68-1.38,1.27-3.05,1.94-4.88,2.24-2.1.35-4.23.6-6.3,1.05-6.5,1.43-12.59,3.83-18.07,7.68-2.97,2.08-5.54,4.55-7.57,7.58-1.07,1.6-2.25,3.14-3.47,4.64-.85,1.04-1.9,1.87-3.2,2.37-3.04,1.16-5.57.1-6.84-2.92-.06-.14-.13-.29-.22-.5-2.19.35-4.22.12-5.85-1.64-1.57-1.7-1.8-3.69-1.57-5.84-2.28-1.98-2.71-6.12-.41-8.8,2-2.33,4.52-3.6,7.62-3.75,2.9-.14,5.23.91,7.07,3.13.13.15.26.3.4.44.05.05.13.08.32.18.43-.26.96-.53,1.42-.87,1.49-1.1,2.97-2.22,4.44-3.34,3.7-2.81,7.69-5.09,12.04-6.72.91-.34,1.82-.66,2.94-1.05-.35-.15-.51-.23-.68-.28-2.96-.85-5.91-1.7-8.87-2.54-2.81-.8-5.63-1.56-8.42-2.4-4.2-1.27-8.28-2.85-12.14-4.98-.21-.11-.4-.25-.61-.36-2.71-1.42-4.08-3.75-4.49-6.7-.29-2.07-.66-4.14-.07-6.36-.62-.2-1.19-.39-1.75-.57-1.67,1.48-3.5,2.55-5.53,3.24-1.9.65-3.9.72-5.86.63-2.87-.13-5.73-.5-8.59-.76-1.96-.18-3.92-.36-5.88-.51-1.38-.11-2.65.34-3.89.86-.33.14-.63.32-.96.45-3.15,1.23-4.71,3.75-5.38,6.86-.46,2.11-.6,4.3-.95,6.44-.21,1.28-.43,2.58-.87,3.8-1.34,3.75-5.43,5.23-8.92,3.29-1.33-.74-2.4-1.78-3.39-2.92-2.22-2.56-3.86-5.47-5.39-8.46-.9-1.76-1.78-3.52-2.72-5.25-1.81-3.3-4.2-6.13-7.3-8.28-1.92-1.33-3.97-2.42-6.39-2.6-1.06-.08-1.92.16-2.62,1.02-.78.96-1.72,1.71-2.93,2.13-1.57.54-3.07.45-4.42-.47-.97-.66-1.79-1.53-2.65-2.33-.26-.24-.44-.55-.72-.92-1.85.68-3.62.44-5.24-.71-1.59-1.13-2.22-2.81-2.62-4.67-.3-.04-.56-.1-.82-.09-1.39.05-2.45-.58-3.23-1.67-1.64-2.27-1.81-4.7-.43-7.12,1.42-2.49,3.59-4.07,6.45-4.56,1.6-.27,3.13.16,4.61.73,1.91.73,3.82,1.52,5.86,1.79.77.1,1.62.17,2.33-.05,2.29-.72,4.59-.68,6.91-.29,2.84.47,5.5,1.4,7.92,2.99,5.91,3.88,11.28,8.37,15.54,14.09.14.19.31.35.46.53.02.02.07.02.23.06.05-.45.1-.89.14-1.33.49-5.39,2.14-10.36,5.56-14.62,2.41-3,5.54-4.89,9.35-5.57,2.3-.41,4.56-.07,6.77.64.36.12.72.23,1.37.44-1.89-4.23-2.68-8.48-3.19-12.8-.5-4.29-.51-8.59.11-12.87.62-4.3,2.15-8.34,3.76-12.35-.07-.04-.14-.08-.2-.13-.19.15-.42.28-.58.46-3.8,4.42-8.73,6.66-14.41,7.37-2.18.27-4.26-.18-6.03-1.57-.52-.41-.84-1.12-1.39-1.41-.56-.29-1.32-.15-1.96-.32-1.5-.39-2.01-1.4-1.54-2.89.06-.18.13-.36.23-.63-1.75-.81-2.7-2.05-2.06-4.1-1.32-.65-2.31-1.57-2.36-3.13-.05-1.48.71-2.63,1.64-3.69-.29-.94-.56-1.84-.82-2.7-.14-.05-.22-.1-.28-.09-1.66.21-2.15.01-2.78-1.47-.59-1.37-1.06-2.8-1.54-4.22-.35-1.04-.08-1.94.82-2.62.6-.45,1.16-.97,1.8-1.34,3.85-2.25,7.72-4.45,12.07-5.63.3-.08.82-.32,1.12-.34,1.56-.37,1.64-.95,2.08-2.1,1.13-2.91,2.37-5.77,3.56-8.65.15-.36.33-.72.5-1.07.39-.8.99-1.3,1.91-1.39.55-.06,1.08-.22,1.63-.29,1.55-.2,2.58,1.1,2.01,2.55-1.07,2.76-2.15,5.51-3.22,8.27-.14.36-.25.72-.45,1.29.93-.17,1.68-.33,2.44-.46,1.16-.2,2.08.14,2.75,1.15,1.1,1.67,1.86,3.47,2.23,5.43.14.72-.25,1.21-.71,1.66-.25.24-.56.42-.91.68,2.45,2.38,4.57,4.96,5.63,8.26,1.18.39,2.3.06,3.37-.28,1.95-.62,3.88-1.32,5.79-2.05.5-.19.96-.54,1.37-.9,1.22-1.06,2.39-2.18,3.6-3.25,2.07-1.84,4.25-3.53,6.63-4.94.23-.14.45-.31.75-.53-.14-.47-.29-.95-.44-1.43-.95-.18-1.86-.27-2.72-.53-.97-.29-1.94-.66-2.84-1.13-1.07-.56-1.72-1.53-1.88-2.73-.13-.97-.17-1.96-.17-2.94,0-1.25.11-2.51.17-3.99-2.24,1.54-4.45,2.18-6.87,1-2.25-1.1-3.63-2.96-4.45-5.37-1.45.62-2.66,1.46-3.72,2.52-1.57,1.58-2.78,3.43-3.96,5.3-.34.53-.65,1.08-1.04,1.58-.24.32-.6.55-.99.89-.05-.89.41-2.84.91-3.88,1.67-3.51,4.11-6.34,7.44-8.38.27-.16.54-.32.84-.51-.04-1.06-.08-2.11-.12-3.23-1.23.23-2.39.42-3.53.68-.65.15-1.26.46-1.91.63-.34.09-.73.03-1.11.05-.12-.87.35-1.25.86-1.54,1.7-1,3.44-1.92,5.48-2.05.27-.02.54-.1.84-.15.43-.76.87-1.55,1.4-2.49-2.4-1.8-4.83-3.63-7.26-5.45.05-.1.1-.2.14-.3,1.11-.37,2.03.47,3.01.74,1.04.29,2.03.86,2.97,1.42.94.57,1.78,1.29,2.66,1.93.6-.27,1.18-.51,1.73-.8.19-.1.35-.3.47-.49.29-.47.57-.94.81-1.44.12-.23.21-.52.19-.77-.15-2.53,1.02-4.48,2.7-6.2.63-.64,1.28-1.27,1.84-1.97.22-.27.28-.72.29-1.09.06-2.59.78-4.98,2.05-7.21.29-.51.61-1.01.96-1.58-.75-1.69-.19-3.27.7-4.78,1.26-2.15,3.03-3.71,5.36-4.62.48-.19.95-.38,1.36-.54.39-1,.63-2.01,1.14-2.87,1.38-2.35,3.53-3.89,5.9-5.14.35-.18.71-.34,1.16-.55-.27-1.49.34-2.83.77-4.22.16-.52.21-1.08.27-1.63.23-2.17.94-4.15,2.44-5.78.27-.29.57-.55.89-.77,1.26-.83,2.75-.35,3.3,1.05.07.18.16.38.17.57.06,1.68,1.1,2.82,2.16,3.95,1.27,1.35,2.52,2.71,3.8,4.05.19.2.5.33.77.42,1.08.34,2.18.66,3.27.99.34.1.67.24,1.01.32,4.57,1.01,8.74,2.93,12.61,5.54.26.18.53.34.8.5.49-.55.92-1.12,1.43-1.6.37-.35.81-.63,1.26-.87.65-.35,1.31-.29,1.87.2.57.5.68,1.17.41,1.84-.2.5-.53.97-.83,1.42-.31.45-.66.87-1.02,1.34.8,1.18,2.2,1.49,3.09,2.51,1.1-.41,2.2-.83,3.31-1.24,1.84-.67,3.77-.86,5.69-1.04,1.45-.13,2.92-.15,4.37-.1.81.03,1.65.22,2.41.5,1.12.42,1.53,1.55,1.04,2.64-.24.53-.6,1.02-.94,1.5-.36.52-.78,1-1.15,1.51-.86,1.19-1.26,2.48-1.15,3.99.19,2.65.02,5.29-.72,7.86-.13.45-.1.83.11,1.24.52,1,.68,2.09.67,3.21,0,.91.1,1.82.06,2.72-.11,2.98-1.84,6.46-4.28,8.56.31.79.63,1.63.97,2.45,1.92,4.68,2.1,9.4.58,14.24-.28.9-.61,1.76-.97,2.63-.23.54-.42,1.11-.56,1.68-.29,1.19-.23,2.34.41,3.43,1.3,2.21,2.6,4.42,3.86,6.65.77,1.37,1.47,2.79,2.2,4.18,1.09,2.1,2.18,4.17,3.66,6.05,1.78,2.26,3.33,4.7,4.97,7.07,2.94,4.25,5.85,8.52,9.12,12.54,1.74,2.14,3.25,4.46,4.88,6.71ZM128.89,167.34c-.89.1-1.75.22-2.62.29-.51.04-1.03.05-1.53,0-.44-.05-.86-.27-.95-.76-.09-.51.27-.8.66-1.01.28-.15.57-.27.87-.37,1.79-.6,3.59-1.19,5.39-1.79,2.81-.94,5.6-1.95,8.07-3.61,2.55-1.72,5.12-3.43,7.5-5.36,6.9-5.58,12.36-12.26,15.59-20.64,2.48-6.44,3.56-13.07,2.94-19.96-.08-.83-.32-1.5-1.01-2.02-2.59-1.94-5.13-3.95-7.74-5.86-1.14-.84-2.4-1.51-3.8-1.87-.95-.24-1.89-.54-2.84-.83-1.1-.33-1.28-.99-.48-1.79.22-.22.5-.39.78-.52,2.02-.94,3.9-.67,5.68.64,1.65,1.22,3.3,2.44,4.97,3.62,3.13,2.21,6.12,4.59,8.75,7.41,2.71,2.91,5.01,6.09,6.66,9.72.35.78.8,1.51,1.3,2.45.05-.43.05-.63.09-.81.28-1.13,1.1-1.41,2.04-.71.2.15.39.3.72.56-.18-.89-.09-1.52.67-1.83.5.19.99.38,1.67.64-.17-.35-.21-.5-.3-.62-1.01-1.36-2.03-2.72-3.04-4.09-3.16-4.28-6.46-8.48-9.45-12.88-4.63-6.79-10.03-12.88-16.13-18.36-.32-.29-.63-.6-.9-.93-.33-.41-.33-.88-.08-1.33.26-.46.7-.67,1.2-.58.45.08.91.26,1.32.48.61.33,1.19.72,1.79,1.09.06-.05.12-.1.18-.15-1.58-2.26-2.17-5.08-4.13-7.16-3.59,3.19-7.49,5.61-11.84,7.29-3.64,1.41-7.33,2.48-11.3,1.91-.1-.01-.21.02-.43.04.38,1.25,1.58,2.21,1.23,3.73-.73-.22-1.12-.67-1.47-1.14-.59-.79-1.13-1.62-1.75-2.38-.25-.31-.63-.61-1.01-.71-2.13-.58-4.28-1.1-6.43-1.61-.3-.07-.71,0-.99.15-.96.53-1.88,1.12-2.94,1.76.38,1.24.75,2.52,1.15,3.79.5,1.58,1.06,3.14,1.55,4.72.16.53.36,1.1-.01,1.7-.67-.35-.93-.93-1.18-1.5-.59-1.33-1.15-2.68-1.75-4.01-.61-1.36-1.25-2.7-1.89-4.09-.88.17-1.65.33-2.43.45-3.6.55-6.88-.34-9.94-2.21-.4-.24-.76-.33-1.22-.28-2.12.22-3.92,1.14-5.52,2.47-2.47,2.04-4.64,4.39-6.73,6.81-2.25,2.6-4.24,5.4-6.17,8.24-2.1,3.09-3.87,6.35-4.85,9.96-.68,2.51-1.23,5.07-1.61,7.64-.57,3.84-.54,7.72.08,11.56.38,2.38.78,4.76,1.42,7.08,1.64,5.95,5.09,10.82,9.46,15.06,2.18,2.12,4.47,4.13,7.45,5.13.59.2,1.14.55,1.44,1.27-.75.87-1.76,1.06-2.77.85-1.14-.24-2.33-.56-3.34-1.12-3.56-2-6.88-4.4-9.5-7.54-1.27-1.52-2.69-2.55-4.51-3.2-1.75-.63-3.44-1.4-5.3-1.65-1.42-.19-2.82-.19-4.2.31-2.77,1-4.76,2.87-6.19,5.4-2.04,3.61-3.06,7.52-3.27,11.64-.12,2.4-.05,4.81-.11,7.22-.03,1.11-.08,2.19.23,3.28.14.5.12,1.11-.01,1.63-.21.81-.91.99-1.56.47-.21-.17-.39-.4-.53-.63-.41-.68-.81-1.36-1.17-2.06-4.66-9.07-11.34-16.26-20.07-21.55-2.66-1.61-5.56-2.39-8.62-2.71-.29-.03-.6.04-1.07.08.36.33.59.53.81.74.77.74,1.54,1.47,2.29,2.22.3.3.44.68.17,1.07-.26.39-.66.4-1.06.25-.59-.22-1.18-.45-1.76-.71-1.36-.59-2.73-.71-4.15-.22-2.14.74-3.51,2.27-3.79,4.44-.28,2.13.48,4.06,2.32,5.37.95.68,1.69.6,2.55-.22.45-.44.84-.94,1.29-1.39,1.07-1.09,2.35-1.68,3.91-1.67,1.96.02,3.84.35,5.64,1.14,5.53,2.42,9.62,6.38,12.5,11.64.98,1.8,1.88,3.65,2.8,5.48,1.4,2.79,2.89,5.53,5.03,7.84.53.57,1.13,1.11,1.79,1.53,1.24.8,2.29.48,3.14-.73,1.36-1.94,1.88-4.15,2.23-6.42.25-1.64.4-3.29.7-4.92.2-1.07.42-2.23.96-3.14,2.1-3.53,5.18-5.65,9.32-6.12,3.23-.37,6.45-.31,9.66.18,2.65.4,5.31.73,8,.64,2.19-.08,4.33-.37,6.33-1.3.41-.19.79-.47,1.24-.74-.2-.21-.29-.33-.4-.42-.48-.4-.91-.88-.56-1.52.34-.63.99-.52,1.59-.39.85.19,1.48.66,2.33.81,1.43.25,2.88.75,4.44.4.17-.22.25-.3.31-.4,1.78-3.23,4.42-5.6,7.38-7.71,2.59-1.85,5.42-3.21,8.39-4.31,1.59-.59,3.22-1.05,4.86-1.46.54-.13,1.18-.01,1.73.13.54.14.68.58.33,1.01-.36.44-.83.88-1.34,1.08-3.24,1.3-6.25,2.98-9.12,4.95-3.29,2.26-6.12,4.97-8.34,8.29-.86,1.28-1.7,2.59-1.95,4.15-.23,1.39-.54,2.82.17,4.17.82,1.57,1.96,2.86,3.51,3.75.55.32,1.07.67,1.64.95,1.91.94,3.76,2.1,5.76,2.73,6.16,1.95,12.37,3.76,18.6,5.5,3.4.95,6.67,2.17,9.84,3.69,1.12.54,1.28,1.84.25,2.54-.52.35-1.24.44-1.88.58-.61.13-1.27.08-1.87.26-1.7.49-3.4,1.01-5.07,1.61-5.62,2-10.8,4.8-15.44,8.57-.76.62-1.56,1.22-2.39,1.74-3.11,1.96-4.9,1.32-6.75-.66-.03-.03-.06-.05-.08-.08-1.27-1.51-2.93-1.89-4.81-1.67-1.42.17-2.66.72-3.68,1.72-1.11,1.09-1.39,2.38-.84,3.97.32-.27.55-.48.79-.67,1.64-1.27,4.09-1.29,5.71,0,.33.26.63.61.82.98.31.61-.01,1.11-.69,1.15-.31.02-.62-.07-.93-.14-1.75-.36-3.47.66-3.89,2.4-.22.91-.06,1.8.49,2.59.62.91,1.58.98,2.53.97.9,0,.78-.87.97-1.41.99-2.84,3.33-3.93,5.81-4.08.45-.03.94.12,1.38.28.73.26,1.19.8,1.07,1.26-.18.68-.77.63-1.34.66-2.64.13-4.66,3.29-3.68,5.73.32.81.8,1.07,1.67.94.91-.13,1.66-.58,2.19-1.29,1.01-1.31,2.01-2.63,2.9-4.03,1.23-1.94,2.53-3.81,4.13-5.47,2.68-2.78,5.74-5.07,9.08-6.96,5.65-3.19,11.69-5.31,18.05-6.58,1.58-.31,3.16-.68,4.73-1.06.76-.18,1.48-.51,1.57-1.39.08-.81-.52-1.32-1.15-1.65-1.04-.54-2.14-.98-3.21-1.48-4.09-1.9-8.04-4.04-11.8-6.53-2.35-1.55-4.47-3.39-6.36-5.47-1.57-1.73-2.93-3.61-3.91-5.75-.95-2.08-1.15-4.1.42-6,.02-.02-.01-.07-.05-.26ZM122.91,77.97c.36-.27.62-.55.93-.68.3-.12.78-.22.98-.07.25.2.42.66.41,1-.02.41-.23.83-.42,1.21-.22.43-.25.77.04,1.2.71,1.04,1.35,2.13,2.06,3.17.16.23.46.47.73.51,1.91.24,3.83.54,5.77.26,6.33-.92,11.77-3.71,16.49-7.93,1.22-1.09,2.28-2.43,3.17-3.8,2.97-4.57,3.3-9.4,1.25-14.46-1.11-2.74-2.82-5.21-3.59-8.1-.01-.05-.12-.07-.29-.16-.49.77-.99,1.54-1.49,2.32-.48-.05-.62-.38-.6-.75.1-1.49.08-3.02,1.18-4.23.95-1.05,1.86-2.15,2.85-3.17,2.35-2.42,4-5.19,4.34-8.6.19-1.88.32-3.77.38-5.66.05-1.63.49-3.11,1.44-4.43.57-.8,1.15-1.58,1.73-2.36-.06-.06-.08-.1-.1-.11-.11-.03-.23-.07-.34-.07-3.28-.11-6.54-.12-9.71.96-4.69,1.6-8.71,4.06-11.28,8.47-.26.44-.53.88-.83,1.3-.75,1.04-1.23,2.18-1.4,3.46-.08.59-.27,1.14-.89,1.4-.55-.44-.61-1.04-.69-1.62-.12-.82-.19-1.65-.32-2.47-.4-2.41-1.5-4.5-3.18-6.23-1.44-1.48-3.14-2.63-5.35-2.22-3.11.58-5.8,1.97-7.82,4.48-.2.25-.46.44-.74.7-.74-1.42-.6-2.61.33-3.65.71-.79,1.52-1.48,2.29-2.21.18-.17.35-.34.55-.54-3.96-1.66-11.63-2.99-13.3-2.3.87,1.06,1.58,2.19,1.72,3.57.04.38.03.8-.1,1.16-.23.65-.83.77-1.29.26-.31-.35-.51-.79-.75-1.2-1.05-1.77-2.54-2.8-4.65-2.68-3.5.19-6.19,1.69-7.8,4.91-.11.21-.14.46-.24.81,4.06-2.61,8.2-1.07,8.92,4.24.72-.29.84-1.39,1.81-1.36.44.48.31,1.01.05,1.44-1.13,1.85-2.17,3.78-3.5,5.47-1.41,1.79-3.1,3.37-4.7,5-.83.84-1.7,1.65-2.63,2.38-1.56,1.23-3.19,2.38-4.8,3.58.53.41,1.2.39,1.86.4.55,0,1.11-.06,1.65-.02,1.91.12,3.68,1.66,3.97,3.5.28,1.8-.48,3.41-1.05,5.04-.22.63-.92.75-1.64.54-.65-.19-.65-.69-.66-1.22,0-.59-.02-1.18-.1-1.76-.07-.56-.36-.96-1-.97-.52,0-1.07.37-1.26.9-.09.26-.12.54-.2.8-.24.73-.75,1.15-1.35,1.14-.6,0-1.18-.41-1.38-1.12-.16-.6-.16-1.24-.26-1.86-.04-.23-.17-.44-.29-.73-.69.81-.7.81-.85,2.01-.07.56-.11,1.15-.72,1.39-.65.25-1.01-.23-1.37-.67-.04-.05-.14-.07-.2-.1-.46.1-.94.15-1.32-.01-.45-.19-.82-.56-1.31-.93-.23.51-.41.91-.55,1.21.6.52,1.12.9,1.52,1.36.15.18.14.62.02.85-.08.17-.48.26-.72.24-.41-.03-.82-.17-1.38-.3-.02.65-.03,1.17-.04,1.74.47.06.86.08,1.23.17.44.1.9.34.84.84-.04.33-.33.68-.6.92-.28.24-.67.36-.99.52.63,2.71,3.79,4.11,6.09,2.79.72-.41.76-.61.63-1.44-.17-1.13-.31-2.26-.35-3.4-.02-.57.18-1.16.36-1.72.15-.47.46-.85,1.02-.84.6.02.77.48.88.95.1.42.16.85.22,1.28.51,3.74,2.61,6.23,6.01,7.75,2.23,1,4.57,1.47,6.96,1.79.25.03.51-.02,1.02-.05-1.11-1.41-2.09-2.64-3.05-3.88-.51-.65-1.02-1.31-1.47-2-.26-.41-.38-.92.1-1.28.42-.32.89-.24,1.32.06.19.14.4.27.56.44,1.01,1.1,2.07,2.17,3,3.34.71.89,1.27,1.9,1.87,2.87.25.4.52.69,1.03.62,1.37-.19,2.73-.38,4.1-.59.12-.02.22-.17.38-.3-.22-.22-.37-.4-.55-.54-1.68-1.24-3.37-2.48-5.06-3.71-.48-.35-1.04-.6-1.44-1.02-.26-.27-.4-.76-.38-1.15.03-.47.48-.74.94-.75.46,0,.97,0,1.37.2,1.03.49,2.09.98,2.99,1.66,1.57,1.18,3.08,2.46,4.54,3.79.59.54,1.09.69,1.78.34.88-.45,1.73-.95,2.64-1.32.97-.4,1.33-1.02.97-2.19-2.11-.69-4.31-1.43-6.53-2.12-1.62-.5-3.26-.92-4.89-1.39-.38-.11-.78-.28-.77-.78.02-.54.46-.75.88-.8.54-.07,1.1-.05,1.64,0,2.63.3,5.2.92,7.71,1.78.97.33,1.94.62,2.89.92,1.86-2.38,4.24-3.52,5.49-2.73-1.05,1.19-2.61,1.93-3.24,3.53.23.11.4.2.58.27,3.59,1.36,6.98,3.12,10.36,4.93,4.14,2.21,7.4,5.49,10.71,8.7.25.24.45.56.61.87.1.19.07.44.11.67-.87-.02-.9.02-1.56-.5-2.86-2.25-5.99-4.09-9.06-6.04-3.61-2.29-7.41-4.2-11.36-5.84-.23-.1-.49-.14-.97-.27.26.7.39,1.23.63,1.7.91,1.71,2.35,2.71,4.24,3.11.47.1.93.29,1.41.43-.17.87-.78.92-1.3.96-2.48.19-4.73-.27-6.31-2.54-.65,1.09-1.23,2.07-1.83,3.09,1.21,1.43,2.4,2.84,3.62,4.28ZM146.2,159.56c.44.12.63.18.81.21,2.97.6,5.73,1.75,8.31,3.33,1.48.91,2.93,1.86,4.37,2.83,5.18,3.49,10.7,6.2,16.78,7.77,5.58,1.44,10.69.46,15.5-2.58,6.3-3.98,11.09-9.31,14.25-16.06.66-1.42,1.17-2.93,1.6-4.44.41-1.48.65-3.01.91-4.52.85-4.86.11-9.53-1.87-13.99-1.89-4.28-4.75-7.88-8.07-11.15-2.1-2.08-4.48-3.73-7.05-5.15-.36-.2-.75-.34-1.36-.61.27.69.43,1.12.62,1.55.81,1.85,1.5,3.72,1.5,5.8,0,1.01.42,1.92,1.32,2.52.98.66,1.57,1.62,2.12,2.65.96,1.83,1.41,3.78,1.37,5.81-.02,1.05-.2,2.14-.56,3.12-.51,1.4-1.9,1.58-2.91.49-.21-.22-.38-.48-.72-.9-.07,1.15-.14,2.08-.2,3.01-.12,1.82-.93,3.34-2.17,4.61-.48.48-1.14.92-1.78,1.07-.52.12-1.14-.24-1.8-.41-.9,2.11-2.34,3.97-4.15,5.54-1.43,1.24-2.78,2.59-4.3,3.7-1.52,1.11-3.13,2.16-4.84,2.91-3.86,1.7-7.98,2.08-12.16,2.01-2.15-.04-4.22-.55-6.27-1.11-1.81-.49-3.65-.55-5.5-.58-.18,0-.4.06-.55.17-1.01.75-2,1.51-3.19,2.42ZM168.5,117.08c-.07,3.42-.45,6.73-1.06,10.01-.62,3.31-1.62,6.5-2.9,9.61-1.27,3.11-2.74,6.12-4.59,8.93-1.84,2.78-4.14,5.19-6.28,7.81,3.32.38,6.57.78,9.83.84,2.97.05,5.87-.57,8.63-1.78,3.2-1.4,6.25-3.01,8.75-5.51.17-.17.3-.38.52-.67-.28.03-.39.03-.5.05-1.68.26-2.32-.89-2.02-2.18.12-.54.29-1.06.42-1.6.39-1.57.78-3.13,1.14-4.7.12-.52.09-1.06-.14-1.47-1.13.84-2.18,1.65-3.27,2.4-1.26.86-2.73,1-4.2.93-1.33-.07-1.92-1.15-1.36-2.36.16-.36.39-.69.61-1.01.4-.58.86-1.13,1.23-1.74,1.05-1.71,2.19-3.39,2.53-5.43.07-.43.09-.81-.15-1.24-1.95-3.48-4.14-6.8-6.46-10.04-.22-.3-.49-.57-.73-.86ZM45.02,91.77c.23-.08.42-.13.59-.21,1.02-.42,2.02-.91,3.06-1.25,1.01-.32,2.07-.49,3.11-.69.41-.08.8.05.97.49.17.43.01.77-.34,1.04-.22.17-.46.31-.68.47-.67.49-1.36.94-1.99,1.48-.83.7-.83.97-.14,2.04.2-.07.43-.13.64-.22,2.67-1.17,5.31-2.41,8.02-3.48,1.49-.59,3.08-1,4.66-1.27,1.66-.28,2.6,1.11,1.9,2.65-.18.39-.45.74-.69,1.1-.21.32-.44.62-.8,1.12.74-.24,1.25-.4,1.76-.57.56-.18,1.12-.39,1.69-.52,1.47-.32,2.46.58,2.35,2.09-.07.87-.5,1.57-1.02,2.22-.45.57-.95,1.1-1.56,1.79.51-.1.81-.16,1.11-.21.62-.11,1.24-.28,1.87-.31,1.71-.1,2.65,1.33,1.85,2.84-.29.54-.72,1.06-1.2,1.44-.86.68-1.76,1.37-2.74,1.84-3.76,1.81-7.56,3.53-11.35,5.3-.18.08-.34.23-.58.41,1.14.66,2.25.8,3.41.79,2.09-.02,4.05-.68,5.95-1.43,2.88-1.13,5.39-2.89,7.21-5.39,2.53-3.47,2.39-7.3.68-11.02-1.21-2.62-3-4.9-5.41-6.63-.49-.35-.88-.4-1.4-.23-.52.17-1.06.35-1.6.38-.29.02-.7-.21-.86-.45-.12-.19-.03-.63.13-.86.24-.35.58-.65.94-.88,1.02-.67,2.07-1.3,3.09-1.96.52-.33,1.02-.68,1.53-1.03-.36-.83-.65-1.51-.99-2.27-7.87,3.87-15.97,6.77-24.52,8.69.5.99.91,1.82,1.35,2.69ZM185.04,130.53c.17.12.31.2.42.31.23.22.46.44.65.69,1.43,1.93,2.45,4.04,2.86,6.42.15.86.32,1.71.48,2.57.1.02.19.03.29.05.17-.31.45-.6.5-.93.56-3.36.45-6.61-1.69-9.49-.16-.21-.29-.68-.18-.82.25-.3.63-.58,1.01-.67.29-.06.69.13.98.3,1.21.69,2.3,1.53,3.12,2.67.24.33.53.64.86,1.04.07-4.12-4.04-7.86-8.44-7.79-.02.18-.05.38-.07.57-.03.23-.05.47-.1.7-.2.82-.49,1.02-1.35.89-.34-.05-.68-.11-1.08-.18.01.5.07.93.02,1.35-.11,1.07-1.12,1.52-1.99.88-.31-.23-.57-.54-.84-.82-.26-.27-.52-.54-.88-.93-.38,1.46-.42,2.89-1.49,3.9-.02.02-.02.08-.03.11-.61,1.28-1.21,2.56-1.84,3.83-.23.47-.54.9-.82,1.34,1.19-.43,2.12-1.11,2.76-2.14.33-.54.62-1.1.97-1.63.71-1.06,1.75-1.08,2.51-.05.23.31.41.67.57,1.03,1.1,2.42,1.09,4.89.25,7.38-.18.54-.34,1.09-.51,1.64.08.05.15.1.23.15.56-.63,1.14-1.23,1.67-1.88,1.33-1.64,1.88-3.54,1.6-5.63-.16-1.17-.45-2.32-.69-3.48-.1-.46-.28-.92.25-1.39ZM65.38,103.95c.26-.12.5-.28.72-.46.42-.35,1.31-.99,1.29-1.05.74-1.34-1.92-.26-2.36-.12-1.61.53-3.87,1.14-5.5,1.6-.71.2-1.55.71-2.29.72-.49,0-.74.33-.93-.16-.19-.5,0-.95.35-1.29.31-.3.66-.56,1.02-.8,2.08-1.35,4.76-2.16,6.84-3.51.41-.27,2.2-1.09,1.82-2.01-.31-.77-1.38-.45-1.48-.41-2.11.76-3.54,1.38-5.65,2.14-1.59.58-4.04,2.17-5.64,2.72-.36.13-.78.15-1.17.13-.45-.02-.84-.24-.98-.72-.12-.45.12-.77.46-1,1.16-.77,2.43-1.39,3.69-1.89.64-.26,1.21-.64,1.76-1.05.98-.75,3.47-1.66,4.62-2.59.21-.17.96-1.35-.46-.97-.48.18-.7.24-.91.34-2.23.99-4.47,1.97-6.7,2.97-1.61.73-3.24,1.43-4.81,2.25-.56.29-1,.86-1.4,1.38-.31.41-.15.84.35,1.05.32.14.67.24.99.38,1.2.52,1.49,1.26.99,2.44h0c-.26.63.11,1.34.77,1.48.25.05.48.1.72.15,1.37.3,1.8,1.48.94,2.58,0,0,0,0,0,0-.31.4.05.81.44,1.14.24.21,1.17-.45,1.25-.49,4.03-1.86,7.32-3.1,11.26-4.97ZM91.84,41.14c1.41.11,2.37.74,3.7.78.34,0,1.11-.73,1.38-.97.9-.82,1.71-1.74,2.63-2.55,1.31-1.15,1.65-2.63,1.63-4.26-.02-1.45-.79-2.5-2.03-3.09-1.12-.54-2.27-.22-3.19.59-2.84,2.49-3.96,5.74-4.12,9.5ZM101.35,77.99c-.42.65-.8,1.19-1.12,1.77-.11.21-.16.55-.08.76.25.66.46,1.39.9,1.91,2.8,3.31,6.79,4.67,11.42,3.01-.85-1.59-1.69-3.16-2.52-4.72-3.44.57-6.57.58-8.61-2.74ZM121.38,79.89c-1.26-1.42-2.42-2.73-3.66-4.13-1.64,1.7-3.34,3.12-5.51,3.99.88,1.73,1.7,3.32,2.55,4.98,2.48-1.26,4.67-2.74,6.62-4.84ZM16.54,152.89c-.97-.79-1.93-1.11-3.05-.89-1.34.27-2.53.82-3.53,1.77-1.84,1.74-1.94,5.03-.16,6.82.62.63,1.36,1.05,2.39.63-.16-3.55,1.28-6.3,4.35-8.34ZM113.82,7.02c.38,1.37.69,2.69,1.67,3.82,1.01-.13,2.03-.26,3.28-.42-.44-.52-.69-.85-.98-1.15-.44-.45-.91-.88-1.34-1.33-1.32-1.36-2.32-2.88-2.47-4.84,0-.12-.12-.24-.22-.43-1.31,1.36-2.2,2.82-2.27,4.64-.04,1.12-.29,2.17-.68,3.21-.16.42-.24.87-.41,1.52,1.04-.28,1.86-.5,2.78-.75-.51-1.57-.8-3.03.66-4.27ZM10.68,149.79c-.5-.25-.83-.45-1.18-.58-2.02-.7-3.68.03-5.2,1.33-.99.85-1.27,1.97-1.23,3.18.06,1.59.96,2.48,2.33,2.45.4-.87.71-1.77,1.2-2.56.47-.76,1.04-1.49,1.7-2.1.67-.63,1.49-1.09,2.39-1.73ZM92.64,71.54c.07,1.29.14,2.41.17,3.54.02.69.37,1.07.98,1.31,1.44.56,2.93.82,4.43,1.02.75-1.32.99-2.22.91-3.34-.67-.19-1.37-.39-2.11-.59-.17.6-.27,1.06-.43,1.51-.2.58-.59.85-1.05.71-.52-.15-.76-.53-.71-1.08.04-.47.12-.95.08-1.41-.02-.27-.19-.62-.41-.75-.52-.33-1.11-.56-1.86-.91ZM59.3,81.2c1.08-.24,1.43-.07,1.76-.9,1.41-3.55,3.06-7.66,4.51-11.2.15-.37.23-.78.36-1.25-.93.04-1.04-.2-1.31.44-1.54,3.54-3.33,7.85-4.86,11.39-.18.42-.27.88-.45,1.51ZM44.57,86.08c.03.07.07.14.1.21,1.63-.46,3.27-.87,4.88-1.38,2.14-.68,4.25-1.45,6.37-2.18.75-.26,1.11-.75,1.03-1.65-4.31,1.39-8.49,2.84-12.38,5ZM76.61,103.96c.15-.07.3-.08.35-.16,1.55-2.4,3.09-4.8,4.7-7.31-1.58.58-3.07,1.12-4.44,1.63-.21,1.97-.41,3.86-.61,5.84ZM90.66,43.49c-1.69,1.54-2.81,3.26-2.92,4.56,1.38-.89,2.83-1.58,3.94-2.65-.77-.64-1.05-1.22-1.02-1.92ZM121.84,83.29c.82.15,1.48.27,2.13.39.17.03.3.13.34.06-.34-.43-.9-1.13-1.28-1.61-.41.39-.74.71-1.19,1.16Z"/>
      <path class="cls-1" d="M125.68,144.49c-.79-4.03.87-7.01,4.05-9.28,1.15-.82,2.41-1.49,3.65-2.17,2.36-1.3,4.11-3.14,5.33-5.53.66-1.3,1.47-2.52,1.69-4,.03-.19.12-.38.22-.55.28-.47.72-.51,1.04-.07.16.21.29.49.33.75.07.58.18,1.19.09,1.76-.68,4.54-2.49,8.37-6.72,10.68-.97.53-1.91,1.11-2.88,1.63-1.96,1.06-3.31,2.65-4.1,4.72-.38.99-.73,2-1.1,3-.12.33-.2.8-.65.68-.28-.07-.53-.42-.7-.7-.15-.26-.18-.6-.26-.91Z"/>
      <path class="cls-1" d="M140.59,113.22c1.61.29,1.91.67,1.92,2.29,0,.39.06.77.1,1.37.41-.28.68-.46.94-.64.26-.18.5-.4.78-.52.45-.18.78.1.76.58-.03.99-1.35,2.55-2.33,2.74-1,.19-1.83-.21-2.34-1.19-.22-.41-.36-.86-.55-1.31-.56.13-1.08.3-1.62.37-1.22.16-2-.68-1.71-1.87.14-.57.37-1.13.65-1.65,1.27-2.41,1.88-4.93,1.45-7.65-.03-.19-.03-.4,0-.59.13-.56.66-.8,1.06-.39.4.4.74.94.91,1.48.7,2.11.83,4.25.11,6.39-.06.18-.1.38-.15.57Z"/>
      <path class="cls-1" d="M141.41,95.58c-.2-1.33-.18-2.54.38-3.68.35-.73.84-1.33,1.68-1.56.57-.15,1.1-.12,1.54.32.42.42.39.92.2,1.43-.79,2.07-.37,3.95.87,5.69.31.44.74.81,1.13,1.2.35.35.64.74.4,1.25-.25.54-.76.71-1.29.63-.49-.08-1.02-.23-1.43-.5-1.79-1.17-2.94-2.81-3.47-4.78Z"/>
      <path class="cls-1" d="M98.06,100.01c.07-.58.08-1.05.2-1.5.49-1.96,1.56-3.59,3.02-4.96.61-.57,1.33-.97,2.2-.99.41-.01.8.04,1,.46.21.43,0,.76-.29,1.05-.22.22-.46.43-.69.64-1.58,1.45-2.91,3.08-3.71,5.1-.04.11-.09.22-.15.32-.19.34-.38.81-.84.65-.31-.11-.51-.51-.74-.76Z"/>
      <path class="cls-1" d="M90.3,150.48c.05-.34.02-.88.22-1.32.39-.88,1.47-.94,1.99-.13.25.39.37.86.54,1.3.59,1.58,1.07,3.21,2.33,4.45.22.22.36.8.23,1.02-.16.25-.72.47-1.01.38-.62-.19-1.28-.48-1.72-.92-1.28-1.27-2.02-2.88-2.58-4.79Z"/>
      <path class="cls-1" d="M111.45,170.32c-.15-1.06-.23-2.12.17-3.14.25-.65.62-1.19,1.33-1.38.92-.25,1.66.3,1.67,1.25,0,.31-.06.62-.11.93-.26,1.39-.47,2.77-.03,4.18.26.83-.42,1.35-1.25,1.03-.67-.25-1.06-.8-1.33-1.42-.2-.46-.3-.97-.45-1.46Z"/>
      <path class="cls-1" d="M153.12,134.79c.09,1.85-.56,3.53-1.87,4.95-.2.22-.51.37-.8.46-.75.22-1.22-.15-1.22-.94,0-.27.09-.54.14-.81.23-1.23.46-2.46.69-3.68.03-.15.02-.31.04-.47.15-.87.65-1.38,1.34-1.41.7-.03,1.25.42,1.51,1.24.06.19.09.38.16.67Z"/>
      <path class="cls-1" d="M149.46,135.95c-.1.34-.2,1.05-.49,1.68-.62,1.35-1.6,2.43-2.7,3.4-.14.13-.32.24-.5.31-.77.34-1.39-.1-1.22-.94.1-.48.38-.95.64-1.38.66-1.12,1.28-2.26,1.51-3.57.17-1.01.6-1.46,1.26-1.46.75,0,1.33.63,1.5,1.96Z"/>
      <path class="cls-1" d="M113.14,139.62c-.5,1.39-1,2.79-1.51,4.18-.15.41-.24.84-.46,1.21-.14.23-.5.54-.69.49-.27-.07-.58-.38-.69-.66-.14-.35-.17-.78-.12-1.16.3-1.94.61-3.87.98-5.8.07-.34.34-.73.64-.93.73-.48,1.61.05,1.77,1.06.08.54.04,1.09.05,1.64v-.04Z"/>
      <path class="cls-1" d="M85.19,129.65c-.19-1.79.07-3.53.63-5.22.05-.15.12-.29.2-.42.43-.72,1.06-.99,1.66-.71.57.27.79.81.58,1.61-.46,1.7-.96,3.4-1.43,5.1-.12.41-.16.95-.7.96-.57.01-.74-.5-.88-.96-.03-.11-.05-.23-.07-.35Z"/>
      <path class="cls-1" d="M81.65,129.36c.04-.52.02-1.2.16-1.85.26-1.19.58-2.37.98-3.51.16-.44.55-.89.95-1.14.73-.47,1.46.01,1.41.88-.02.31-.14.61-.23.91-.49,1.58-1,3.15-1.49,4.73-.02.08-.04.15-.06.23-.13.41-.23.91-.79.88-.56-.03-.75-.5-.92-1.12Z"/>
      <path class="cls-1" d="M117.02,141.2c-.05-.51-.17-1.02-.14-1.52.04-.58.13-1.18.34-1.71.24-.62.8-.87,1.32-.76.56.11.85.47.94,1.19.03.23,0,.47,0,.71.06,1.37.11,2.74.2,4.11.03.44.12.9-.37,1.13-.51.24-.99,0-1.22-.43-.45-.86-.8-1.77-1.19-2.66.04-.02.08-.04.12-.06Z"/>
      <path class="cls-1" d="M115.45,169.98c0-.58-.04-1.37.06-2.15.06-.45.29-.9.55-1.28.31-.46.81-.65,1.35-.46.58.19.74.67.71,1.23-.02.35-.12.7-.12,1.06-.01,1.1,0,2.19.02,3.29,0,.2.07.39.06.59-.06.74-.66,1.07-1.24.62-.38-.3-.68-.76-.9-1.2-.22-.45-.29-.98-.49-1.68Z"/>
      <path class="cls-1" d="M72.61,154.64c-.15-.01-.42-.02-.7-.05-1.51-.16-2.9.15-4.14,1.05-.32.23-.68.57-1.05.24-.35-.32-.31-.83-.04-1.2.34-.47.73-.95,1.2-1.28,1.12-.78,2.38-1.24,3.76-1.23.75,0,1.4.28,1.75,1,.33.67.04,1.3-.78,1.49Z"/>
      <path class="cls-1" d="M159.21,112.6c.06,1.41-.3,2.99-1.39,4.35-.1.12-.22.27-.36.3-.12.02-.24.04-.36.06-.51.07-.98-.34-.92-.84,0-.06.02-.12.04-.17.41-1.22.56-2.44.43-3.72-.11-1.03.32-1.64,1.04-1.7.71-.06,1.27.48,1.51,1.72Z"/>
      <path class="cls-1" d="M74.57,156.29c-.15.2-.35.57-.65.82-.22.18-.58.22-.89.29-1.31.29-2.57.7-3.74,1.39-.26.16-.75.25-.96.11-.4-.26-.34-.76-.13-1.18.1-.21.23-.42.39-.58,1.19-1.16,2.63-1.85,4.28-2.07.85-.11,1.57.37,1.7,1.21Z"/>
      <path class="cls-1" d="M91.89,122.9c0,.5.03.78,0,1.05-.15,1.14-.17,2.27.09,3.4.11.46.11.99-.45,1.21-.5.2-.92-.08-1.27-.42-1.09-1.07-1.35-4.09-.46-5.34.32-.44.75-.79,1.29-.58.35.13.6.51.8.69Z"/>
      <path class="cls-1" d="M117.64,120.62c-.64-.58-.6-1.11-.53-1.6.21-1.46.28-2.88-.36-4.27-.24-.51-.13-1.02.41-1.32.5-.27,1.04-.23,1.4.19.32.37.6.84.71,1.32.37,1.58.15,3.13-.62,4.56-.22.42-.64.73-1.01,1.13Z"/>
      <path class="cls-1" d="M105.98,96.39c-1.01.56-1.49,1.58-2.08,2.49-.17.26-.25.6-.46.81-.23.23-.65.55-.84.47-.29-.12-.49-.53-.66-.85-.08-.15-.05-.39-.03-.58.23-1.57.92-2.91,2.06-4,.27-.25.67-.43,1.04-.5.9-.19,1.45.41,1.23,1.3-.07.3-.18.59-.27.89,0,0,.02-.03.02-.03Z"/>
      <path class="cls-1" d="M97.42,153.32c-.14-.05-.45-.11-.72-.25-1.24-.61-2.18-1.56-2.84-2.75-.24-.43-.32-.97-.37-1.46-.05-.56.26-1,.82-1.15.51-.14.92.11,1.2.54.11.16.21.34.28.52.46,1.06,1.12,1.98,1.95,2.79.19.19.38.41.51.65.34.63.07,1.07-.83,1.12Z"/>
      <path class="cls-1" d="M153.94,96.45c-.13.51-.17,1.07-.41,1.53-.25.47-.72.44-1.07.02-.15-.18-.23-.42-.38-.6-.62-.76-1.25-1.5-1.89-2.25-.13-.15-.31-.25-.45-.39-.39-.41-.52-.88-.28-1.41.22-.49.82-.83,1.39-.62.57.21,1.15.54,1.58.96.73.74,1.16,1.68,1.5,2.76Z"/>
      <path class="cls-1" d="M162.23,113.37c.15,1.77-.3,3.24-1.37,4.51-.15.17-.37.3-.58.39-.69.28-1.08.01-1.06-.73,0-.23.06-.47.12-.7.33-1.1.55-2.21.39-3.38-.08-.53.08-1.03.65-1.27.49-.21.96-.11,1.3.27.26.28.41.66.56.91Z"/>
      <path class="cls-1" d="M113.13,139.66c.13-.41.22-.84.4-1.23.16-.35.36-.75.66-.94.29-.18.75-.21,1.09-.12.42.11.55.54.5.97-.03.27-.14.54-.17.81-.13,1.25-.24,2.5-.36,3.74-.02.23.04.49-.05.69-.1.23-.3.53-.5.56-.2.04-.58-.15-.67-.34-.28-.6-.53-1.23-.66-1.87-.15-.76-.17-1.55-.24-2.32,0,0-.02.05-.02.05Z"/>
      <path class="cls-1" d="M122.71,114.77c.12,1.07.17,1.94-.47,2.65-.55.61-1.02.53-1.32-.22-.07-.18-.12-.38-.14-.57-.13-.97-.52-1.8-1.24-2.47-.42-.39-.58-.85-.26-1.37.3-.47.76-.64,1.32-.54.63.11,1.09.46,1.39.99.31.54.54,1.13.72,1.52Z"/>
      <path class="cls-1" d="M155.81,93.44c-.02.27,0,.51-.05.74-.18.72-.75.9-1.34.45-.9-.69-1.8-1.38-2.69-2.08-.6-.47-.79-1.11-.51-1.65.28-.54.93-.82,1.63-.59,1.54.52,2.37,1.73,2.96,3.13Z"/>
      <path class="cls-1" d="M105.98,96.39s-.02.03-.02.03c.9-.77,1.42-.92,1.97-.55.61.41.67,1.08.23,2.13-.34.8-.64,1.61-.95,2.41-.15.38-.29.76-.78.78-.5.02-.86-.28-.99-.7-.15-.48-.26-1.02-.17-1.5.16-.88.47-1.74.72-2.61Z"/>
      <path class="cls-1" d="M128.31,46.41c-.76-.46-.79-1-.56-1.62.06-.15.11-.3.18-.44,1.02-1.85,1.07-3.87.83-5.88-.12-.99-.48-2.01-.96-2.89-.94-1.74-2.61-2.37-4.54-1.81-.71.21-1.43.51-2.04.92-3.21,2.16-5.01,5.25-5.82,8.91,3.12.89,6.2,1.72,9.25,2.64,2.11.64,4.24,1.25,6.13,2.46.47.3,1.11.53.89,1.21-.22.68-.93.53-1.44.45-1.12-.19-2.23-.47-3.4-.73-.24.39-.45.86-.77,1.24-1.26,1.48-2.9,2.05-4.78,1.69-1.99-.38-3.6-1.45-4.59-3.24-.36-.66-.51-1.48-.59-2.25-.06-.61-.27-.74-.93-.66.12,1.1.11,2.18.37,3.19.9,3.5,4.6,5.35,8.02,4.12,1.24-.44,2.4-1,3.39-1.88.17-.15.62-.65.79-.58.25.17-.02.75-.12.88-.55.71-1.04,1.56-1.76,2.04-1.09.74-2.33,1.31-3.56,1.81-1.2.48-2.48.28-3.72-.04-.03.07-.06.15-.09.22.39.25.74.58,1.16.73.88.32,1.81.52,2.7.82.3.1,1.47.24,1.73.43-.22.26-1.32.78-1.6.87-.51.18-1.1.33-1.62.25-1.24-.2-2.5-.43-3.65-.89-.72-.29-1.29-.99-1.88-1.55-.28-.26-.44-.64-.72-.92.22,1.74,1.99,3.08,3.12,4.58-.51.1-1.16-.05-1.4-.11-.41-.11-.82-.31-1.17-.56-2.35-1.64-4-3.7-3.87-6.75.05-1.1.11-2.22.37-3.28.75-3.06,1.51-6.13,2.45-9.14.99-3.15,2.84-5.79,5.34-7.97,1.5-1.31,3.32-1.82,5.25-1.88,2.65-.08,4.86,1.6,5.9,4.32.76,1.98.92,4.04.31,6.04-.49,1.61-1.32,3.12-2.02,4.66-.1.23-.38.37-.61.59Z"/>
      <path class="cls-1" d="M144.89,36.76c.47-.28.92-.59,1.41-.83.97-.47,1.56-.16,1.82.89.06.24.16.53.33.68.44.37.59.82.53,1.36-.06.55.26.78.64.88,1.75-.28,2.21-1.84,3.39-2.82.35,1.02.44,1.87.03,2.75-1.01,2.19-2.78,3.5-5,4.19-1.27.39-2.08-.14-2.57-1.41-.07-.18-.14-.36-.22-.56-.6.19-1.15.39-1.71.55-2.45.68-3.36-.81-3.47-2.62-.11-1.83.26-3.61,1.05-5.28,1.75-3.69,4.48-6.34,8.36-7.73.81-.29,1.65-.52,2.49-.72.59-.14.6-.1,1.31.3-.17.66-.76.85-1.28,1.1-1.67.81-3.31,1.7-4.55,3.12-1.51,1.73-2.24,3.84-2.8,6.01.07.05.14.09.21.14Z"/>
      <path class="cls-1" d="M114.13,32.89c-.25.27-.46.58-.75.8-1.16.9-2.16,1.93-3.1,3.06-1.16,1.39-2.54,2.59-3.68,4-2.64,3.28-5.19,6.63-7.77,9.97-.3.39-.61.7-1.21.67.02-1.08.14-2.07.73-2.95,2.84-4.31,5.97-8.42,9.34-12.33.55-.64,1.32-1.1,2.04-1.56.89-.57,1.82-1.09,2.77-1.57.43-.22.93-.29,1.4-.43.68-.13.63.11.23.36Z"/>
      <path class="cls-1" d="M144.84,71.43c-.35-.67.01-1.18.18-1.73.39-1.27.8-2.54,1.08-3.84.21-.97.06-1.92-.6-2.78-.55-.71-.04-1.6.88-1.66.74-.05,1.35.29,1.63.94.29.67.58,1.41.59,2.13.04,2.28-.71,4.32-2.11,6.12-.39.49-.83.96-1.66.83Z"/>
      <path class="cls-1" d="M114.77,24.69c.75.24.85.77.82,1.28-.1,1.75-.88,3.16-2.34,4.16-.1.07-.21.15-.32.15-.14,0-.27,0-.41-.02-.38-.02-.65-.4-.54-.77.02-.08.06-.16.09-.23.2-.38.49-.71.77-1.04.72-.85,1.32-1.76,1.56-2.87.05-.21.21-.4.35-.66Z"/>
      <path class="cls-1" d="M112.56,25.32c.11.35.15.72.12,1.09-.04.42-.09.9-.22,1.35-.19.65-.71.91-1.15.73-.55-.22-.58-.66-.5-1.17.13-.85.2-1.72.37-2.56.03-.16.16-.3.29-.44s.34-.16.5-.05c.13.09.24.18.31.3.12.22.2.46.29.75Z"/>
      <path class="cls-1" d="M189.29,162.76c-.29-.09-.79-.1-.89-.31-.13-.28-.04-.75.11-1.07.16-.34.49-.61.77-.89,1-1.02,1.89-2.1,2.4-3.47.27-.73.68-1,1.21-.9.62.12.95.56,1.03,1.15.05.38.09.82-.04,1.16-.82,2.12-2.55,3.32-4.58,4.33Z"/>
      <path class="cls-1" d="M203.2,141.63c.18,1.69.04,3.25-.69,4.7-.22.43-.61.83-1.03,1.07-.56.31-1.02-.03-1.03-.67,0-.27.06-.55.12-.82.29-1.45.34-2.89.08-4.35-.18-1,.02-1.52.59-1.73.62-.23,1.33.22,1.72,1.1.11.25.19.52.25.7Z"/>
      <path class="cls-1" d="M172.05,164.54c-.3.09-.62.12-.94.08-.41-.05-.92-.1-1.42-.23-.35-.09-.74-.36-.93-.66-.18-.29-.25-.77-.13-1.08.09-.23.56-.41.87-.43.62-.04,1.27.15,1.88.03,1.19-.23,2.36-.58,3.52-.91.44-.13.93-.52,1.27,0,.32.49-.11.89-.46,1.2-.99.91-2.15,1.52-3.66,1.98Z"/>
      <path class="cls-1" d="M200.3,141.98c.14,1.85-.52,3.65-1.81,5.24-.26.31-.62.53-1.04.31-.46-.24-.35-.68-.23-1.04.47-1.51.78-3.03.78-4.63,0-1,.35-1.41,1.02-1.43.61-.02,1.07.48,1.28,1.56Z"/>
      <path class="cls-1" d="M172.7,167.79c-.99.2-1.76.11-2.43-.4-.4-.3-.64-.7-.48-1.24.14-.49.53-.65.97-.75,1.19-.26,2.37-.52,3.56-.78.43-.1.96-.25,1.15.24.14.34.09.89-.1,1.2-.65,1.03-1.72,1.46-2.67,1.72Z"/>
      <path class="cls-1" d="M196.52,159.17c-.01.15,0,.47-.08.77-.39,1.38-1.34,2.27-2.59,2.86-.39.19-.94.27-1.17-.16-.15-.27,0-.74.11-1.08.1-.28.38-.5.53-.77.32-.62.67-1.23.89-1.89.29-.87.5-1.16,1.09-1.15.58.01,1.06.52,1.22,1.42Z"/>
      <path class="cls-1" d="M203.87,142.26c-.14-.39-.36-.98-.54-1.58-.28-.95-.14-1.48.41-1.76.55-.28,1.31.04,1.77.78.51.83.72,1.75.5,2.71-.08.37-.26.76-.52,1.03-.21.22-.64.42-.91.35-.25-.06-.45-.46-.61-.74-.09-.16-.05-.38-.1-.79Z"/>
    </g>
  </g>
  <g>
    <g id="ZuBgyf.tif">
      <path class="cls-1" d="M103.59,95.06c-1.77,2.23-3.01,4.93-3.26,7.91-.06.75-.15,1.49-.18,2.24-.03.72,1.46,1.55,2.26,1.13,2.08-1.08,4.33-1.73,6.36-3.05,1.53-.99,2.59-2.3,3.8-3.5.79-.79,1.22-1.96,1.75-2.99.27-.52.54-.91,1.2-.67.58.21,1.2.35,1.75.64.64.34,1.18.48,1.75-.12.22-.23.59-.31,1.04-.53.31,1.04.8,1.98.79,2.91-.01,1.29.85,2.14,1.2,3.23.43,1.33,1.26,2.56,1.74,3.81.59,1.54,1.92,2.01,2.85,2.98.73.76,2.09,1.01,3.21,1.3,1.17.3,2.24-.59,2.44-1.81.2-1.21.44-2.41.59-3.63.06-.46-.08-.94-.11-1.42-.12-1.62-.23-3.23-.35-4.85-.02-.23-.03-.49-.13-.69-.64-1.35-1.12-2.84-2.03-4-.84-1.08-1.51-2.53-3.19-2.76-.35-.05-.65-.46-1.07-.78.29-.15.47-.31.58-.27,1.09.35,2.11.18,3.2-.12,1.12-.31,2.34-.3,3.51-.41.39-.04.78-.02,1.17-.02.24,0,.56.12.71.01,1.24-.94,2.81-.43,4.14-1.01.36-.16.82-.14,1.22-.1.82.09,1.53.08,2.37-.32.93-.44,2.1-.36,3.15-.55.84-.16,1.72.06,2.55-.48.58-.38,1.37-.44,2.07-.63,1.51-.42,3.06-.74,4.37-1.69.13-.09.34-.16.48-.13,1.02.23,2.15.28,3,.79.87.52,1.46,1.5,2.19,2.27.75.8,1.51,1.59,2.29,2.36.65.64,1.35,1.1,2.32,1.28.08.01.15.05.22.09.55-.02,1.08,0,1.62.07.58-.33,1.13-.69,1.68-1.06.98-.66,1.92-1.38,2.87-2.08.31-.85.59-1.77.46-2.59-.15-1.01-.92-1.93-1.43-2.89-.58-1.07-.95-2.38-1.81-3.13-.56-.48-1.04-1.05-1.51-1.62-.07-.06-.13-.11-.2-.17-1.14-1.09-2.29-2.2-3.48-3.15-.65-.3-1.32-.56-1.97-.87-.31-.15-.58-.38-.88-.55-.33-.18-.66-.35-1.01-.5-.23-.11-.48-.18-.68-.25.03-.08.07-.16.1-.25-1.67-.43-3.46-.3-5.46.74-3.39,1.76-6.3,4.14-9.86,5.66-2.23.95-4.54,1.7-6.86,2.4.01.02.03.04.04.06-1.09.32-2.19.63-3.28.96-.66.2-1.31.45-1.97.64-1.44.4-2.89.8-4.34,1.16-.6.14-1.23.15-1.84.24-.06,0-.13.02-.19.02-.31.12-.62.24-.93.35-.82.75-5.51-.18-6.49-.17-2.65.71-1.67,2.12-4.38,1.97-2.98-.17-4.68.76-7.71.84.42.21-4.09.2-3.22-.78,1.15-1.3,3.43.58,5.41,1.91,1.11,1.23,1.25.78,2.01,1.96-.47.2-.92.3-1.26.55-1.85,1.33-4.04,2.41-5.41,4.13Z"/>
    </g>
    <path class="cls-3" d="M102.63,102.25s1.65-4.51,2.13-4.87,1.64-2.41,4.12-3.28,2.92,1.14,2.92,1.14c0,0-.86,3.35-1.32,3.44s-2.05,2.42-3.21,2.7c-5.19,1.28-5.48,2.25-4.47,1.79l-.17-.92Z"/>
    <path class="cls-3" d="M127.76,105.85s-3.34-4.34-3.39-4.96-1.31-2.93-.61-5.5c.7-2.57,2.92-1.59,2.92-1.59,0,0,2.71,2.92,2.51,3.35s1.06,3.26.62,4.38-1.05,4.78-1.05,4.78l-.99-.47Z"/>
    <path class="cls-3" d="M117.65,93.18s-3.4-.32-3.82-2.14c-.51-2.23-.13-2.89,1.58-3.65.19-.08.37-.16.53-.24,1.08-.48,2.31-.48,3.37.05.68.34,1.31.72,1.35,1,.18,1.18.11,2.3-.14,2.92s-2.34,2.32-2.34,2.32l-.55-.26Z"/>
    <path class="cls-3" d="M127.12,85.78c1.01.25,6.38-1,8.31-1.15,4.22-.34,5.11-2.39,10.17-3.83,4.32-1.23,5.02-1.45,8.01-2.95,3.58-1.8,2.02-2.69,4.12-2.77,1.88-.07,3.52,1.74,9.49,7.71,1.16,1.16,2.33,2.27,2.25,3.84-.06,1.17-.79,2.41-1.82,2.81-1.14.45-2.01-1.04-5.67-3.87-2.92-2.26-3.75-4.57-4.15-4.63-1.84-.26-3.08,1.45-6.02,2.31-1.27.37-2.67,1.95-6.67,2.24-5.45.39-4.53.02-7.23.35-3.64.45-8.5,2.85-9.41,1.8-.43-.49-1.46-1.33-1.37-1.87Z"/>
  </g>
  <polyline class="cls-1" points="113.08 86.18 117.33 96.12 118.25 95.08 115.24 85.77"/>
</svg>