<svg width="1120" height="186" viewBox="0 0 1120 186" fill="none" xmlns="http://www.w3.org/2000/svg">
<g clip-path="url(#clip0_273_668)">
<path d="M66.1894 148.252H65.0822C58.1628 125.508 51.0061 102.844 43.7308 80.1793C42.8214 77.3215 41.912 74.4636 41.0026 71.6454C39.1838 65.9296 38.3139 58.5865 35.6648 53.2677C34.0436 49.9732 33.3714 50.6877 29.2989 50.6877C26.2543 50.6877 23.2098 50.6877 20.2047 50.6877C14.0761 50.6877 5.85186 49.2984 -0.0395508 51.0052C1.77927 63.5084 7.90792 76.6864 11.7433 88.7927C15.8554 101.772 19.9675 114.791 24.0796 127.771C25.2658 131.581 26.4916 135.392 27.8359 139.123C31.948 150.594 37.3254 161.549 41.2398 173.1C42.5446 176.91 42.6237 182.825 46.3405 183.896C48.4361 184.492 51.6388 183.896 53.8134 183.896H87.0267C91.0993 171.83 95.1324 159.763 99.205 147.697C106.203 126.858 113.795 106.377 120.794 85.5378C122.731 79.7824 124.589 74.027 126.329 68.2318C127.911 63.0321 130.876 56.6416 130.995 51.2433C120.715 51.5609 109.485 49.2984 99.284 50.6877C94.8556 51.283 94.223 55.7286 92.6809 59.8567C90.7039 65.0564 89.0828 70.3752 87.5408 75.7734C84.4962 86.4905 82.0052 97.406 78.1699 107.885C74.9276 116.697 72.8716 126.342 70.1038 135.432C69.8665 136.265 66.822 148.292 66.1894 148.292V148.252Z" fill="#1F2622"/>
<path d="M146.099 183.896C146.099 183.023 161.085 183.182 162.152 183.182C165.869 183.182 169.625 183.182 173.342 183.182C176.268 183.182 177.296 183.857 178.166 181.316C179.154 178.458 178.166 173.378 178.166 170.361C178.166 164.566 178.166 158.811 178.166 153.015C178.166 124.754 178.166 96.493 178.166 68.2318C178.166 67.3189 178.166 50.648 178.166 50.648H165.79C161.006 50.648 152.623 48.9412 148.155 50.648C146.416 51.3228 146.93 50.251 146.178 52.3548C145.348 54.6569 146.455 59.3407 146.534 61.8016C146.732 68.0731 146.85 74.3842 146.93 80.6953C147.088 93.0001 147.088 105.305 147.048 117.61C147.048 120.428 147.048 123.246 147.048 126.064C147.048 145.315 146.06 164.566 146.06 183.857L146.099 183.896Z" fill="#1F2622"/>
<path d="M2.05835 9.90918H8.94755L15.5811 22.4376H15.8652L22.4987 9.90918H29.3879L18.7771 28.716V39.0001H12.6691V28.716L2.05835 9.90918Z" fill="#1F2622"/>
<path d="M32.7473 39.0001V9.90918H52.3495V14.9802H38.8978V21.912H51.341V26.983H38.8978V33.9291H52.4064V39.0001H32.7473Z" fill="#1F2622"/>
<path d="M57.2395 39.0001V9.90918H68.7167C70.9137 9.90918 72.7887 10.3022 74.3417 11.0882C75.9042 11.8647 77.0927 12.9679 77.9071 14.3978C78.7309 15.8183 79.1429 17.4897 79.1429 19.412C79.1429 21.3438 78.7262 23.0058 77.8929 24.3978C77.0595 25.7804 75.8521 26.841 74.2707 27.5796C72.6987 28.3183 70.7953 28.6876 68.5605 28.6876H60.8758V23.7444H67.5662C68.7404 23.7444 69.7158 23.5834 70.4923 23.2615C71.2688 22.9395 71.8465 22.4565 72.2253 21.8126C72.6135 21.1686 72.8076 20.3685 72.8076 19.412C72.8076 18.4461 72.6135 17.6317 72.2253 16.9688C71.8465 16.306 71.2641 15.8041 70.4781 15.4632C69.7016 15.1128 68.7215 14.9376 67.5378 14.9376H63.39V39.0001H57.2395ZM72.9497 25.7615L80.1798 39.0001H73.39L66.3162 25.7615H72.9497Z" fill="#1F2622"/>
<path d="M83.4895 39.0001V9.90918H95.1372C97.2773 9.90918 99.0624 10.2264 100.492 10.8609C101.922 11.4954 102.997 12.376 103.717 13.5029C104.436 14.6204 104.796 15.9082 104.796 17.3666C104.796 18.5029 104.569 19.502 104.114 20.3637C103.66 21.216 103.035 21.9168 102.239 22.466C101.453 23.0058 100.554 23.3893 99.5406 23.6166V23.9007C100.649 23.948 101.685 24.2605 102.651 24.8382C103.627 25.4158 104.417 26.2255 105.024 27.2671C105.63 28.2993 105.933 29.5304 105.933 30.9603C105.933 32.5039 105.549 33.8817 104.782 35.0938C104.024 36.2965 102.902 37.2482 101.416 37.949C99.9289 38.6497 98.0965 39.0001 95.9184 39.0001H83.4895ZM89.64 33.9717H94.6542C96.3682 33.9717 97.6182 33.645 98.4042 32.9916C99.1902 32.3287 99.5832 31.448 99.5832 30.3495C99.5832 29.5446 99.3891 28.8344 99.0008 28.2188C98.6126 27.6033 98.0586 27.1204 97.3389 26.77C96.6287 26.4196 95.7811 26.2444 94.7963 26.2444H89.64V33.9717ZM89.64 22.0825H94.1997C95.0425 22.0825 95.7906 21.9357 96.444 21.6421C97.1069 21.3391 97.6277 20.913 98.0065 20.3637C98.3948 19.8145 98.5889 19.1563 98.5889 18.3893C98.5889 17.3382 98.2148 16.4906 97.4667 15.8467C96.7281 15.2027 95.677 14.8808 94.3133 14.8808H89.64V22.0825Z" fill="#1F2622"/>
<path d="M114.949 39.0001H108.358L118.401 9.90918H126.327L136.355 39.0001H129.764L122.477 16.5569H122.25L114.949 39.0001ZM114.537 27.5654H130.105V32.3666H114.537V27.5654Z" fill="#1F2622"/>
<path d="M149.114 9.90918H156.7L164.711 29.4546H165.052L173.063 9.90918H180.649V39.0001H174.683V20.0654H174.441L166.913 38.858H162.85L155.322 19.9944H155.08V39.0001H149.114V9.90918Z" fill="#1F2622"/>
<path d="M190.73 39.0001H184.139L194.182 9.90918H202.108L212.136 39.0001H205.546L198.259 16.5569H198.031L190.73 39.0001ZM190.318 27.5654H205.886V32.3666H190.318V27.5654Z" fill="#1F2622"/>
<path d="M210.975 14.9802V9.90918H234.867V14.9802H225.961V39.0001H219.882V14.9802H210.975Z" fill="#1F2622"/>
<path d="M238.802 39.0001V9.90918H258.404V14.9802H244.953V21.912H257.396V26.983H244.953V33.9291H258.461V39.0001H238.802Z" fill="#1F2622"/>
<path d="M197.422 76.845V77.7976C197.422 76.0114 226.839 77.0434 229.567 77.1625C235.063 77.4007 240.599 77.6388 246.095 77.6388C251.195 77.6388 256.85 75.932 261.832 77.0831C258.589 84.5057 251.67 91.6106 246.925 98.1996C242.813 103.915 238.74 109.591 234.628 115.307C230.279 121.34 225.93 127.374 221.62 133.407C217.508 139.123 213.356 144.878 209.244 150.594C207.109 153.571 204.934 156.548 202.799 159.525C200.98 162.065 197.936 164.209 196.907 167.305C195.603 171.353 196.433 177.148 196.275 181.396C196.117 186.437 209.046 184.531 212.407 184.452C222.331 184.214 232.256 184.055 242.18 183.896C252.382 183.777 262.583 183.698 272.784 183.658C277.885 183.658 282.985 183.658 288.086 183.658C290.458 183.658 300.936 185.166 302.439 183.539C304.258 181.594 302.676 171.79 302.676 169.21C302.676 166.63 303.823 160.676 302.439 158.572C300.778 156.032 296.943 157.104 294.175 157.143C286.228 157.262 278.28 157.381 270.293 157.501C264.599 157.58 258.945 157.659 253.252 157.739C248.625 157.818 242.892 158.771 238.424 157.739C240.876 153.015 244.909 148.57 248.072 144.243C248.072 142.497 252.54 138.091 253.647 136.582C255.742 133.725 257.68 130.509 260.013 127.85C263.018 124.437 266.181 121.063 268.237 117.014C270.293 112.965 272.863 110.187 275.552 106.495L284.488 94.1907C290.102 86.4506 295.875 78.8693 301.411 71.0498C302.162 70.0178 302.913 68.9064 303.111 67.6759C303.269 66.6042 303.032 65.5325 302.874 64.4608C302.241 60.9679 302.439 57.5146 302.162 54.0217C301.846 49.9333 301.292 50.6875 297.101 50.6875C290.3 50.6875 283.539 50.6875 276.738 50.6875H207.702C205.527 50.6875 201.692 49.9333 199.636 50.6875C196.117 51.9973 197.54 57.7925 197.501 61.4442L197.303 76.8053L197.422 76.845Z" fill="#1F2622"/>
<path d="M361.788 81.5685C362.064 81.4097 362.302 81.2509 362.578 81.1318C372.898 75.4161 386.223 76.8053 396.385 82.7989C397.848 83.6722 399.311 84.6645 400.26 86.0934C400.971 87.2048 401.367 88.475 401.723 89.7452C402.592 92.7618 403.897 95.8975 404.293 98.9539C404.332 99.3508 432.05 98.9539 434.264 99.0333C434.817 99.0333 435.45 99.0333 435.885 98.676C436.201 98.3982 436.32 97.9615 436.438 97.5646C437.269 94.032 435.45 90.5787 434.422 87.3636C433.394 84.1485 432.247 80.8143 430.626 77.7183C427.384 71.5262 423.193 66.2868 418.013 62C412.833 57.7131 406.823 54.4583 399.983 52.2356C393.143 50.0128 385.709 48.9014 377.683 48.9014C354.829 48.9014 329.602 61.5236 320.904 83.95C319.362 87.9193 318.531 92.087 317.78 96.2945C316.475 103.479 315.329 110.663 314.38 117.887C314.103 119.832 313.866 121.737 313.945 123.682C314.024 126.262 314.656 128.763 315.289 131.264C316.791 137.337 318.334 143.41 319.836 149.483C321.22 155.04 326.123 160.16 329.76 164.566C334.149 169.924 339.487 174.41 345.537 177.784C355.026 183.102 365.781 185.762 377.762 185.762C386.895 185.762 394.961 184.373 402.039 181.594C413.268 177.188 424.023 169.845 429.756 158.969C432.643 153.492 434.541 147.538 436.32 141.624C436.755 140.234 437.111 138.527 436.162 137.456C435.371 136.543 433.987 136.463 432.761 136.463C427.898 136.463 423.035 136.583 418.171 136.821C414.415 137.019 409.67 136.027 406.112 137.178C403.621 137.972 404.214 139.877 403.225 142.536C402.118 145.474 400.418 148.173 398.164 150.356C393.815 154.603 387.765 156.826 381.716 157.143C375.666 157.461 369.616 156.032 364.002 153.69C362.302 152.976 360.601 152.182 359.178 150.991C357.636 149.681 356.489 148.014 355.461 146.268C348.898 135.233 346.407 122.055 347.435 109.234C347.632 106.654 347.988 104.074 348.858 101.613C349.847 98.7554 351.507 96.2151 352.812 93.516C354.077 90.9359 355.066 88.2368 356.806 85.9743C358.15 84.2279 359.929 82.7989 361.827 81.6478L361.788 81.5685Z" fill="#1F2622"/>
<path d="M490.806 50.9655C490.45 51.164 490.134 51.5609 489.659 52.3151C486.852 56.5622 485.824 63.7863 484.203 68.6288C480.486 79.6634 476.809 90.6582 473.092 101.693C471.51 106.377 469.968 111.021 468.031 115.546C465.145 122.333 462.851 129.557 461.388 136.781C460.874 139.321 460.321 141.902 459.49 144.362C457.79 149.165 456.129 153.889 454.113 158.493C452.689 161.788 451.701 165.241 450.673 168.694C449.21 173.775 448.024 179.094 445.889 183.936C446.245 183.103 459.925 183.936 461.467 183.936C467.438 183.896 473.408 183.817 479.418 183.777C479.695 183.777 479.972 183.777 480.209 183.619C480.525 183.46 480.684 183.103 480.802 182.785C482.819 177.823 484.361 172.663 485.784 167.503C486.812 163.931 486.891 156.905 490.885 155.476C492.743 154.802 494.76 155 496.697 155.199C505.396 156.032 514.134 156.31 522.833 156.072C525.601 155.992 531.848 153.69 534.22 155.635C535.723 156.866 535.723 161.986 536.158 163.931C536.909 167.384 537.858 170.838 538.767 174.251C539.084 175.442 539.4 176.633 540.072 177.704C540.665 178.657 541.496 179.49 542.01 180.483C542.405 181.237 542.642 182.15 543.275 182.745C543.789 183.222 544.501 183.42 545.173 183.539C551.736 184.968 559.367 183.936 566.089 183.936C568.027 183.936 575.262 185.127 576.409 183.142C576.923 182.229 573.958 177.149 573.523 175.998C572.692 173.735 572.02 171.473 571.348 169.17C568.58 159.684 566.05 150.118 563.519 140.552C561.305 132.018 556.481 124.556 554.702 115.744C553.99 112.33 553.634 108.758 552.25 105.543C551.46 103.717 550.392 102.01 549.562 100.184C547.822 96.374 547.189 92.1269 546.201 88.0385C544.856 82.5212 542.8 77.1627 540.744 71.8439C538.846 66.9617 536.988 62.0398 535.09 57.1576C534.497 55.5699 533.746 51.6006 532.322 50.6877C531.018 49.8541 526.629 50.648 525.008 50.648C514.411 50.648 503.775 50.3701 493.218 50.648C491.952 50.648 491.359 50.648 490.845 50.9258L490.806 50.9655ZM496.737 131.502L511.485 84.2677H512.513L527.301 131.502H496.737Z" fill="#1F2622"/>
<path d="M631.923 81.8463C632.951 81.3303 634.018 80.9334 635.046 80.5364C642.44 77.8373 650.665 76.8847 658.138 79.2663C667.311 82.2035 673.044 89.5864 674.27 98.9935H688.069C693.288 98.9935 703.173 101.494 705.348 95.183C706.218 92.6824 705.743 89.8642 704.952 87.3239C702.62 79.822 697.638 73.4711 692.735 67.3188C682.375 54.2599 665.176 48.941 648.964 49.338C636.272 49.6555 622.987 51.7592 612.825 59.4199C610.492 61.1664 608.397 63.1907 606.024 64.8578C604.364 66.0486 602.545 67.0806 600.924 68.3508C594.518 73.2727 591.355 82.4814 588.825 89.9436C585.859 98.7554 584.752 108.083 584.752 117.332C584.752 138.091 590.802 156.191 605.866 170.599C608.515 173.14 611.204 175.68 614.367 177.466C617.965 179.53 621.998 180.522 626.031 181.475C631.488 182.745 636.984 183.936 642.519 185.008C651.06 186.675 657.624 186.159 665.927 183.976C673.953 181.832 681.545 178.18 688.069 172.981C697.005 165.836 704.241 155.913 706.85 144.64C708.353 138.011 706.139 137.456 700.05 137.376C696.056 137.376 692.023 137.218 688.029 137.178C684.431 137.178 680.477 136.662 676.879 137.099C674.349 137.416 674.546 137.218 673.756 140.115C672.886 143.291 671.976 146.426 669.96 149.086C668.655 150.832 666.955 152.221 665.136 153.412C658.77 157.461 650.902 158.414 643.389 157.778C640.384 157.54 637.3 157.024 634.73 155.476C631.883 153.809 629.867 151.031 627.929 148.371C623.619 142.457 619.191 136.305 617.807 129.12C617.056 125.23 617.214 121.261 617.372 117.292C617.649 111.06 617.926 104.709 619.982 98.7951C620.931 96.1357 622.196 93.635 623.501 91.1344C624.766 88.7131 626.15 86.2522 628.166 84.4263C629.313 83.3546 630.618 82.5211 632.041 81.8463H631.923Z" fill="#1F2622"/>
<path d="M808.902 103.717C808.309 104.313 807.518 104.035 805.62 103.955C802.932 103.876 800.283 103.876 797.594 103.955C792.217 104.074 786.879 104.352 781.501 104.273C773.514 104.193 765.211 103.241 757.264 103.797C756.908 97.8029 757.184 91.1742 757.145 85.0616C757.145 78.1153 757.145 71.1691 757.184 64.1832C757.184 60.9284 757.264 57.6736 757.264 54.4188C757.264 50.5289 757.026 50.648 753.23 50.648C747.339 50.648 741.448 50.648 735.556 50.648C733.382 50.648 726.027 49.5366 724.643 51.3625C723.259 53.1883 724.643 61.0872 724.683 63.3893L724.801 76.3689C724.801 81.2511 724.881 86.1333 724.643 91.0155C724.406 95.8977 723.853 100.82 723.853 105.702C723.853 109.473 724.129 113.283 724.367 117.054C724.96 126.58 725.118 136.146 725.276 145.712C725.395 152.261 725.513 158.85 725.592 165.4C725.671 171.195 726.541 177.982 725.078 183.619C730.1 185.047 737.098 183.857 742.357 183.857C747.023 183.857 752.282 184.492 756.868 183.738C757.975 175.124 756.789 165.717 756.71 157.024C756.631 148.332 756.71 139.282 757.264 130.43C762.641 129.359 768.928 130.113 774.384 130.113C779.841 130.113 785.534 130.113 791.109 130.113C793.877 130.113 796.645 130.073 799.452 130.113C801.864 130.113 806.055 128.803 808.23 130.192C811.433 132.256 809.772 141.068 809.772 144.442C809.693 156.072 809.179 167.702 808.27 179.292C808.191 180.483 808.072 181.753 808.586 182.825C809.851 185.643 818.194 183.936 820.843 183.936C825.944 183.936 831.084 183.936 836.185 183.936C838.992 183.936 840.099 184.531 840.653 181.793C841.483 177.506 840.534 171.869 840.534 167.424C840.613 157.66 840.613 147.855 840.732 138.091C840.732 132.455 840.811 126.818 840.85 121.142C840.85 117.57 840.89 114.037 840.929 110.465C841.048 95.461 841.127 80.4175 841.364 65.4137C841.404 61.7223 841.522 58.0308 841.562 54.3394C841.562 49.616 839.704 50.7274 835.394 50.7274C828.039 50.7274 820.685 50.7274 813.291 50.7274C810.128 50.7274 809.021 50.648 808.784 54.1806C808.428 59.6582 808.981 65.374 809.1 70.8516L809.416 86.6493L809.574 94.1909C809.614 96.3343 810.523 100.502 809.733 102.447C809.456 103.082 809.258 103.479 808.981 103.757L808.902 103.717Z" fill="#1F2622"/>
<path d="M955.475 56.8004C945.907 51.5212 935.192 48.8618 923.29 48.8618C897.708 48.8618 874.38 61.2062 865.483 86.0539C860.936 98.7555 860.145 112.489 860.422 125.985C860.58 132.375 860.976 138.885 862.874 144.998C866.986 158.215 879.203 171.076 891.065 177.744C900.594 183.063 911.349 185.762 923.251 185.762C957.966 185.762 980.939 159.088 983.628 125.429C985.763 98.7952 980.267 70.5737 955.436 56.84L955.475 56.8004ZM950.217 139.282C947.765 145.275 944.286 149.8 939.739 152.896C935.192 155.992 929.696 157.501 923.33 157.501C912.021 157.501 904.786 151.904 898.222 143.092C897.273 141.782 896.324 140.433 895.771 138.925C895.138 137.178 894.98 135.273 894.861 133.407C893.833 116.776 891.105 92.365 906.921 81.7274C918.506 73.9476 933.531 76.9642 942.941 86.7287C950.889 95.0244 953.894 106.059 953.894 117.292C953.894 125.985 952.668 133.288 950.217 139.282Z" fill="#1F2622"/>
<path d="M1086.27 50.6876V81.8463C1086.27 95.1831 1089.2 112.489 1085.76 125.389C1074.49 109.988 1063.14 94.5877 1051.04 79.5045C1044.95 71.9232 1039.81 64.0243 1034.87 55.6492C1031.71 50.2906 1031.43 50.6479 1024.83 50.3303C1019.77 50.0525 1014.63 49.6159 1009.61 50.6876C1000.95 52.5928 1004.27 80.5365 1005.26 86.8873C1005.69 89.5467 1006.28 92.1664 1006.44 94.8259C1006.6 97.2471 1006.36 99.6287 1006.13 102.05C1004.98 114.236 1004.94 126.58 1004.94 138.885C1004.31 148.371 1003.63 157.858 1003.08 167.384C1002.76 172.703 1001.46 179.967 1007 183.063C1015.34 187.667 1028.86 184.69 1037.88 183.777C1037.52 183.777 1035.03 107.25 1037.12 107.289C1037.01 107.289 1038.35 107.051 1038.27 107.051C1055.15 133.05 1073.46 158.334 1091.02 183.936C1098.17 183.936 1106.44 185.166 1113.44 183.936C1116.84 183.341 1116.52 184.531 1118.46 181.594C1120.08 179.133 1119.49 172.425 1119.64 169.488C1120.08 161.867 1119.96 154.206 1119.84 146.545L1119.13 100.423C1118.89 85.8156 1120.28 70.1767 1118.46 55.6889C1117.75 50.0525 1118.54 51.3227 1113.63 50.7273C1110.08 50.2906 1106.2 50.7273 1102.64 50.7273C1097.19 50.7273 1091.73 50.7273 1086.27 50.7273V50.6876Z" fill="#1F2622"/>
<path d="M963.7 0.198436C968.168 -0.754189 972.438 2.22276 975.957 5.12033C979.634 8.13698 983.193 11.233 986.672 14.4084C987.107 14.8054 987.621 15.2817 987.661 15.9167C987.7 16.5121 987.344 17.0678 986.989 17.5441C979.595 28.023 972.161 38.4622 964.767 48.9411C964.174 49.7746 963.462 50.6876 962.434 50.7272C961.762 50.7272 961.169 50.37 960.576 50.0128C955.95 47.0755 949.703 44.3764 945.749 40.5659C941.162 36.16 943.772 34.9296 947.172 29.571C953.143 20.0845 958.639 10.2407 963.621 0.198436H963.7Z" fill="#1F2622"/>
</g>
<defs>
<clipPath id="clip0_273_668">
<rect width="1120" height="186" fill="white"/>
</clipPath>
</defs>
</svg>
